<?xml version="1.0" standalone="no"?><!DOCTYPE svg PUBLIC "-//W3C//DTD SVG 1.1//EN" "http://www.w3.org/Graphics/SVG/1.1/DTD/svg11.dtd"><svg t="1546253832889" class="icon" style="" viewBox="0 0 1024 1024" version="1.1" xmlns="http://www.w3.org/2000/svg" p-id="13096" xmlns:xlink="http://www.w3.org/1999/xlink" width="200" height="200"><defs><style type="text/css"></style></defs><path d="M840.021333 0.170667H183.978667c-69.973333 0-126.862222 56.888889-126.862223 126.862222v580.266667c0 69.916444 56.888889 126.862222 126.862223 126.862222h27.534222v142.392889a33.052444 33.052444 0 0 0 48.184889 29.468444l334.677333-171.918222h245.646222c69.973333 0 126.862222-56.888889 126.862223-126.862222V127.032889c0-69.973333-56.888889-126.862222-126.862223-126.862222z m60.700445 707.128889c0 33.450667-27.249778 60.643556-60.700445 60.643555H586.353778a33.052444 33.052444 0 0 0-15.075556 3.697778l-293.603555 150.755555v-121.344a33.052444 33.052444 0 0 0-33.109334-33.109333H183.978667a60.757333 60.757333 0 0 1-60.700445-60.700444V127.032889c0-33.450667 27.249778-60.700444 60.700445-60.700445h656.042666c33.450667 0 60.700444 27.249778 60.700445 60.700445v580.266667z" p-id="13097" fill="#34cfbe"></path><path d="M512 184.718222A150.414222 150.414222 0 0 0 361.756444 335.075556a32.597333 32.597333 0 0 0 65.080889 0c0-46.990222 38.229333-85.162667 85.162667-85.162667 46.933333 0 85.162667 38.172444 85.162667 85.162667 0 34.531556-20.650667 65.422222-52.736 78.734222a105.984 105.984 0 0 0-64.967111 97.848889 32.597333 32.597333 0 0 0 65.080888 0 40.96 40.96 0 0 1 25.884445-38.115556l0.682667-0.398222a149.959111 149.959111 0 0 0 91.136-138.069333A150.414222 150.414222 0 0 0 512 184.718222zM508.814222 579.640889a46.535111 46.535111 0 0 0 0 93.013333 46.535111 46.535111 0 0 0 0-93.013333z" p-id="13098" fill="#34cfbe"></path></svg>