<?xml version="1.0" standalone="no"?><!DOCTYPE svg PUBLIC "-//W3C//DTD SVG 1.1//EN" "http://www.w3.org/Graphics/SVG/1.1/DTD/svg11.dtd"><svg t="1546250194331" class="icon" style="" viewBox="0 0 1024 1024" version="1.1" xmlns="http://www.w3.org/2000/svg" p-id="3594" xmlns:xlink="http://www.w3.org/1999/xlink" width="200" height="200"><defs><style type="text/css"></style></defs><path d="M593.706667 56.96H148.053333a87.594667 87.594667 0 0 0-87.594666 87.594667v445.610666c0 48.384 39.210667 87.637333 87.594666 87.637334h445.610667c48.384 0 87.594667-39.253333 87.594667-87.637334V144.554667a87.594667 87.594667 0 0 0-87.594667-87.594667m0 42.666667c24.746667 0 44.928 20.181333 44.928 44.928v445.610666c0 24.789333-20.181333 44.970667-44.928 44.970667H148.053333c-24.789333 0-44.928-20.181333-44.928-44.970667V144.554667c0-24.746667 20.138667-44.928 44.928-44.928h445.610667" p-id="3595" fill="#aaaaaa"></path><path d="M890.197333 346.197333H444.629333a87.594667 87.594667 0 0 0-87.637333 87.594667v445.610667c0 48.384 39.210667 87.637333 87.637333 87.637333h445.568c48.384 0 87.637333-39.253333 87.637334-87.637333V433.792c0-48.384-39.253333-87.594667-87.637334-87.594667m0 42.666667c24.789333 0 44.970667 20.181333 44.970667 44.928v445.610667c0 24.789333-20.181333 44.970667-44.970667 44.970666H444.629333a45.013333 45.013333 0 0 1-44.970666-44.970666V433.792c0-24.746667 20.181333-44.928 44.970666-44.928h445.568" p-id="3596" fill="#aaaaaa"></path></svg>