<?xml version="1.0" standalone="no"?><!DOCTYPE svg PUBLIC "-//W3C//DTD SVG 1.1//EN" "http://www.w3.org/Graphics/SVG/1.1/DTD/svg11.dtd"><svg t="1546251189142" class="icon" style="" viewBox="0 0 1024 1024" version="1.1" xmlns="http://www.w3.org/2000/svg" p-id="6610" xmlns:xlink="http://www.w3.org/1999/xlink" width="200" height="200"><defs><style type="text/css"></style></defs><path d="M277.3 468.2c-12.8 0-23.1 10.3-23.1 23.1v18.8c0 12.8 10.3 23.1 23.1 23.1h277c12.8 0 23.1-10.3 23.1-23.1v-18.8c0-12.8-10.3-23.1-23.1-23.1h-277zM256.4 330.5v18.8c0 12.8 10.4 23.1 23.1 23.1h465c12.8 0 23.1-10.4 23.1-23.1v-18.8c0-12.8-10.4-23.1-23.1-23.1h-465c-12.7-0.1-23.1 10.3-23.1 23.1z" p-id="6611" fill="#f4ea2a"></path><path d="M871.3 362.7h-15.1c-12.3 0-22.2 9.9-22.2 22.2v19.2c0 0.7 0 1.4 0.1 2v139c0 55.6-45.1 100.7-100.7 100.7H384.1c-10.9-0.1-21.6 3.1-30.8 9.1L195 758.4V549.6h0.1c-0.1-1.5-0.1-3-0.1-4.4V292.5c0-55.6 45.1-100.7 100.7-100.7H629v-0.1h9.6c12.3 0 22.2-9.9 22.2-22.2v-19.2c0-12.3-9.9-22.2-22.2-22.2h-343C204.7 128 131 201.7 131 292.6v248.3c0 2.2 0.1 4.4 0.1 6.6h-0.1v262.7c0 26.1 29 41.8 50.9 27.5L374.1 712c6.5-4.3 14.1-6.5 21.9-6.5h332.9c90.9 0 164.6-73.7 164.6-164.6v-156c0-12.3-9.9-22.2-22.2-22.2z" p-id="6612" fill="#f4ea2a"></path></svg>