<?xml version="1.0" standalone="no"?><!DOCTYPE svg PUBLIC "-//W3C//DTD SVG 1.1//EN" "http://www.w3.org/Graphics/SVG/1.1/DTD/svg11.dtd"><svg t="1546254604231" class="icon" style="" viewBox="0 0 1025 1024" version="1.1" xmlns="http://www.w3.org/2000/svg" p-id="23191" xmlns:xlink="http://www.w3.org/1999/xlink" width="200.1953125" height="200"><defs><style type="text/css"></style></defs><path d="M249.472 348.608c7.296-7.488 15.488-14.048 23.328-20.96L245.312 290.08C235.488 298.656 225.888 307.52 216.8 316.896c-0.288 0.32-0.544 0.64-0.832 0.96l30.912 33.696C247.776 350.592 248.576 349.536 249.472 348.608z" p-id="23192" fill="#6c006c"></path><path d="M976.864 442.08c-12.128-28.864-28.384-57.312-48.224-84.384-9.92-13.792-20.416-26.336-32.8-39.872-10.784-11.616-23.456-24.128-37.28-36.288-53.632-46.592-121.792-83.712-197.824-100.256-75.84-16.8-158.272-13.824-235.904 9.664-35.008 10.336-68.96 25.12-101.024 43.392l20.512 41.504c29.728-17.056 61.184-30.976 93.728-40.448 70.336-20.992 144.64-23.264 212.384-8 67.84 15.168 128.608 48 175.776 90.688 11.36 10.304 22.272 21.216 33.6 33.792 9.472 10.848 19.68 23.136 28.032 35.232 17.568 24.192 30.912 49.856 42.176 74.944 22.048 50.528 30.208 101.184 27.52 144.896-2.816 43.808-16 80.32-31.648 107.328-15.52 27.104-33.056 45.696-44.768 57.088-11.52 11.264-20.576 17.92-20.16 17.856-1.44 1.184-8.384 6.752-21.088 15.456-14.304 9.792-36.032 23.424-65.824 36.448-29.76 12.896-67.84 25.056-112.832 30.368-44.64 5.12-97.312 3.744-148-14.848-12.544-4.672-24.768-10.624-36.032-17.888-5.728-3.68-10.976-7.744-15.456-11.456-5.888-5.216-9.952-9.568-15.104-15.296-9.632-10.88-17.92-22.528-26.112-36.096-4.224-6.752-8.288-14.08-14.336-22.368-5.824-8.128-14.944-17.536-26.208-23.04-9.984-5.408-24.96-8.032-31.84-8.416-12.352-1.344-24.064 0.448-34.304 3.68-20.512 6.56-36.032 16.736-50.656 23.936-14.592 7.36-27.328 11.328-37.92 9.216-10.72-1.824-22.656-9.92-33.472-21.696-47.264-46.88-54.72-122.176-40.096-193.344 8.416-40.288 22.88-80.672 42.752-117.792l-34.304-31.808c-25.024 44.064-42.048 91.904-52.32 140.832-7.776 39.936-10.272 81.408-3.008 122.336 3.648 20.416 9.856 40.608 19.232 59.488 4.864 9.408 10.176 18.368 16.544 27.072 5.056 6.912 12.128 16.128 19.232 23.424 14.016 14.848 32.768 30.048 58.016 34.624 25.6 4.48 48.384-5.12 64.96-13.472 16.928-8.704 31.232-17.536 43.872-21.44 6.208-2.016 11.904-2.592 16.576-2.112 10.112 0.928 12.032 1.984 17.12 4.064 7.2 2.912 14.08 14.4 23.072 29.472 8.672 14.496 19.04 29.312 30.432 42.208 5.376 6.112 12.128 13.184 17.92 18.304 7.36 6.4 14.464 11.712 21.568 16.352 14.432 9.344 29.408 16.608 44.384 22.272 60.288 22.144 118.72 23.264 168.576 17.856 50.08-5.76 92.352-19.168 125.504-33.408 33.216-14.368 57.472-29.504 73.472-40.384 16.032-10.912 24.032-17.504 24.032-17.504l6.432-5.312c3.648-3.008 8.832-7.104 16.224-14.208 14.752-13.92 35.04-34.752 54.304-67.008 19.168-31.936 35.776-75.68 39.776-127.488C1009.984 558.656 1001.12 499.904 976.864 442.08z" p-id="23193" fill="#6c006c"></path><path d="M173.792 372.192l32.832 32.832c0.064-0.096 0.096-0.16 0.16-0.224l192.064 192.032c-0.48 9.152 0.864 18.496 4.512 27.456 10.08 24.736 34.56 40.736 62.336 40.736 9.344 0 18.56-1.824 27.328-5.408 17.088-6.944 30.624-19.808 38.112-36.192 7.648-16.704 8.128-35.104 1.344-51.712-11.936-29.248-45.6-45.504-77.28-39.04L322.976 289.28c0.032-0.032 0.064-0.032 0.096-0.064l-22.144-40.96C300.864 248.288 300.832 248.32 300.768 248.352L251.328 157.344 251.328 153.6c0-46.208-32.256-61.984-49.312-63.84L187.872 88.192 184.704 102.08C173.952 149.024 200.192 170.912 215.584 175.936l0.064 0.032 50.208 97.088C265.728 273.12 265.632 273.184 265.536 273.28l21.632 41.504c0.064-0.064 0.128-0.096 0.192-0.128l108.512 209.824-163.136-156.64c0.032-0.032 0.064-0.096 0.096-0.128l-32.736-31.424c-0.032 0.032-0.064 0.096-0.096 0.128L81.568 222.656l-1.312-4.16C66.464 175.2 32.672 171.84 22.624 171.84c-5.344 0-8.672 0.736-8.672 0.736l-13.952 3.104 1.152 13.92C5.056 237.184 36.224 250.24 52.544 250.592l121.408 121.376C173.888 372.032 173.824 372.096 173.792 372.192z" p-id="23194" fill="#6c006c"></path></svg>