<?xml version="1.0" standalone="no"?><!DOCTYPE svg PUBLIC "-//W3C//DTD SVG 1.1//EN" "http://www.w3.org/Graphics/SVG/1.1/DTD/svg11.dtd"><svg t="1546254105767" class="icon" style="" viewBox="0 0 1024 1024" version="1.1" xmlns="http://www.w3.org/2000/svg" p-id="19698" xmlns:xlink="http://www.w3.org/1999/xlink" width="200" height="200"><defs><style type="text/css"></style></defs><path d="M917.414176 266.49861h85.261873c11.746532 0 21.222347 9.469676 21.222347 21.216207 0 11.752672-9.476839 21.222347-21.222347 21.222348h-85.261873v-42.438555z m0 0M917.414176 394.579707h85.261873c11.746532 0 21.222347 9.469676 21.222347 21.216207 0 11.746532-9.476839 21.222347-21.222347 21.222348h-85.261873V394.579707z m0 0M917.414176 522.656711h85.261873c11.746532 0 21.222347 9.472745 21.222347 21.218254 0 11.744485-9.476839 21.223371-21.222347 21.22337h-85.261873V522.656711z m0 0" p-id="19699" fill="#1296db"></path><path d="M917.414176 650.736784h85.261873c11.746532 0 21.222347 9.472745 21.222347 21.216208 0 11.746532-9.476839 21.221324-21.222347 21.221324h-85.261873v-42.437532z m0 0M21.23433 266.49861h85.256756v42.817178H21.23433c-11.746532 0-21.222347-9.474792-21.222347-21.222347-0.378623-12.124132 9.097192-21.594831 21.222347-21.594831z m0 0M21.23433 394.579707h85.256756v42.818201H21.23433c-11.746532 0-21.222347-9.475815-21.222347-21.222347 0.001023-11.747555 9.097192-21.595854 21.222347-21.595854z m0 0M21.23433 522.656711h85.256756v42.442648H21.23433c-11.746532 0-21.222347-9.479909-21.222347-21.223371-0.378623-11.746532 9.097192-21.219277 21.222347-21.219277z m0 0M21.23433 650.736784h85.256756v42.821272H21.23433c-11.746532 0-21.222347-9.475815-21.222347-21.221324-0.378623-12.127202 9.097192-21.599947 21.222347-21.599948z m0 0" p-id="19700" fill="#1296db"></path><path d="M871.945612 203.217355c0-46.992267-38.275745-85.262896-85.262896-85.262896H233.439383c-46.991244 0-85.261872 38.269605-85.261872 85.262896v552.862663c0 46.986127 38.270629 85.261872 85.261872 85.261872h552.862663c46.987151 0 85.261872-38.275745 85.261873-85.261872V203.217355h0.381693z m-82.611509 600.608083H234.572183c-25.764803 0-44.715411-20.844747-44.715411-46.60648V455.210599h300.876582c4.167926 0 7.957229-0.759293 11.366885-3.036149l136.039349-98.900498c8.334829 3.787256 17.430998 6.439666 27.282367 6.439666 35.237549 0 64.037479-28.415167 64.037479-64.040548 0-35.240619-28.800953-64.035432-64.037479-64.035432-35.242665 0-64.042595 28.794813-64.042595 64.035432 0 11.370978 3.038196 21.600971 7.960299 30.696116l-125.046994 90.943268h-294.435893V202.457038c0-25.768897 18.950607-46.607504 44.715411-46.607504h554.76192c25.76992 0 44.711318 20.838607 44.711317 46.607504v302.007335h-300.872488c-4.170996 0-8.334829 0.759293-11.366885 3.03308L385.765674 606.782713c-8.336876-3.796466-17.426905-6.447852-27.282367-6.447852-35.240619 0-64.040549 28.423353-64.040548 64.040548 0 35.240619 28.79993 64.043618 64.040548 64.043619s64.040549-28.803 64.040549-64.043619c0-11.366885-3.03001-21.595854-7.957229-30.692022l125.048017-90.943269h294.4318v214.855416c-0.001023 25.385157-18.942421 46.229904-44.712341 46.229904z m0 0" p-id="19701" fill="#1296db"></path></svg>