<?xml version="1.0" standalone="no"?><!DOCTYPE svg PUBLIC "-//W3C//DTD SVG 1.1//EN" "http://www.w3.org/Graphics/SVG/1.1/DTD/svg11.dtd"><svg t="1546249232661" class="icon" style="" viewBox="0 0 1024 1024" version="1.1" xmlns="http://www.w3.org/2000/svg" p-id="1125" xmlns:xlink="http://www.w3.org/1999/xlink" width="200" height="200"><defs><style type="text/css"></style></defs><path d="M559.544 770.986c1.486-2.053 2.614-4.307 3.255-6.637 1.134-4.122 1.041-7.99 0.011-11.478-0.005-0.03-0.006-0.059-0.011-0.089-0.269-1.73-0.532-3.46-0.788-5.192-0.065-0.441-0.256-1.816-0.382-2.718-0.342-2.675-0.659-5.353-0.955-8.033-0.725-6.579-1.248-13.179-1.608-19.788-0.599-11-0.554-22.04 0.292-33.025 0.176-2.289 0.413-4.573 0.672-6.854 0.108-0.714 0.215-1.428 0.329-2.141 0.719-4.472 1.673-8.903 2.802-13.289 0.962-3.735 2.128-7.416 3.434-11.044 0.246-0.682 0.785-2.025 1.196-3.044 0.509-1.102 1.031-2.198 1.571-3.285 1.506-3.028 3.2-5.959 5.007-8.816 0.875-1.384 1.802-2.734 2.747-4.071 0.194-0.275 0.397-0.543 0.596-0.815 4.083-5.014 8.72-9.558 13.663-13.719 0.322-0.271 0.804-0.659 1.297-1.052 0.759-0.56 1.512-1.127 2.28-1.673 2.747-1.954 5.582-3.783 8.454-5.546 5.611-3.445 11.438-6.53 17.333-9.457 12.208-6.063 24.79-11.339 37.178-17.016 14.792-6.779 28.031-14.686 40.447-25.328 25.939-22.234 43.335-53.834 53.638-86.017 22.765-71.116 9.479-153.13-39.664-210.067-28.595-33.13-69.937-54.67-112.184-64.423-47.355-10.932-95.736-5.709-140.183 13.414-41.992 18.067-77.201 50.767-101.238 89.346-25.254 40.533-36.744 89.16-42.099 136.15-8.139 71.419 8.224 144.408 47.94 204.487 29.787 45.059 70.365 82.164 115.886 110.922 16.372 10.343 33.563 19.811 51.51 27.214 0.743 0.346 1.505 0.651 2.28 0.923 0.596 0.239 1.19 0.483 1.788 0.718 5.218 2.047 10.826 1.119 15.599-1.535C555.044 776.327 557.67 773.901 559.544 770.986zM560.12 676.416C560.322 674.827 560.667 672.49 560.12 676.416L560.12 676.416zM685.565 507.331c-0.056 0.071-0.115 0.14-0.171 0.211C688.407 503.558 686.485 506.17 685.565 507.331zM717.483 427.615C717.332 428.765 717.21 429.628 717.483 427.615L717.483 427.615zM481.951 247.355C483.236 246.811 484.503 246.293 481.951 247.355L481.951 247.355zM474.77 694.036c-0.489-0.368-0.973-0.741-1.459-1.112-0.525-0.408-1.063-0.827-1.427-1.115-2.483-1.961-4.936-3.958-7.37-5.979-9.953-8.264-19.459-17.062-28.479-26.335-4.786-4.92-9.408-9.999-13.885-15.201-2.203-2.56-4.357-5.162-6.48-7.79-0.817-1.012-1.62-2.036-2.424-3.059-0.513-0.677-1.025-1.355-1.534-2.036-8.892-11.906-16.872-24.487-23.883-37.588-3.561-6.654-6.819-13.468-9.83-20.388-0.211-0.518-0.425-1.035-0.634-1.553-0.719-1.779-1.41-3.569-2.092-5.362-1.497-3.937-2.882-7.916-4.196-11.918-2.6-7.917-4.793-15.965-6.662-24.085-0.925-4.017-1.737-8.059-2.482-12.112-0.378-2.059-0.722-4.125-1.055-6.191-0.168-1.042-0.323-2.086-0.479-3.13-0.016-0.107-0.03-0.197-0.044-0.293-2.335-18.354-2.787-36.919-1.754-55.382 0.27-4.826 0.673-9.644 1.152-14.454 0.245-2.46 0.529-4.915 0.827-7.369 0.022-0.18 0.05-0.407 0.082-0.654 0.167-1.179 0.335-2.359 0.511-3.537 1.625-10.847 3.796-21.608 6.338-32.275 2.729-11.454 6.005-22.773 9.644-33.97 0.854-2.627 1.844-5.215 2.823-7.797 0.369-0.972 1.912-4.685 2.337-5.748 2.07-4.67 4.315-9.262 6.692-13.783 5.14-9.776 11.1-19.108 17.664-27.986 0.14-0.189 0.348-0.465 0.573-0.759 0.544-0.685 1.087-1.372 1.637-2.053 1.633-2.022 3.321-3.998 5.027-5.958 3.673-4.22 7.551-8.259 11.548-12.171 3.664-3.587 7.492-7.003 11.41-10.308 0.785-0.662 3.707-2.982 4.529-3.659 1.723-1.287 3.462-2.554 5.22-3.793 8.637-6.086 17.796-11.413 27.273-16.073 2.271-1.117 4.574-2.169 6.886-3.199 0.068-0.03 0.147-0.065 0.231-0.101 0.916-0.373 1.834-0.741 2.755-1.103 5.114-2.01 10.328-3.757 15.59-5.333 4.877-1.461 9.822-2.685 14.796-3.763 2.498-0.541 5.011-1.01 7.527-1.453 1.262-0.222 2.528-0.42 3.793-0.617 0.231-0.035 0.462-0.067 0.693-0.101 10.725-1.309 21.557-1.626 32.347-1.169 4.357 0.185 8.704 0.554 13.039 1.035 0.171 0.055 5.134 0.727 6.363 0.935 3.13 0.53 6.242 1.163 9.345 1.837 11.422 2.48 22.596 6.03 33.461 10.322 0.33 0.13 0.963 0.391 1.553 0.636 0.867 0.38 1.736 0.757 2.6 1.144 2.367 1.06 4.707 2.18 7.032 3.329 4.599 2.271 9.082 4.771 13.476 7.416 3.932 2.367 7.75 4.921 11.485 7.585 0.848 0.605 1.684 1.226 2.519 1.847 1.811 1.439 3.588 2.921 5.341 4.429 6.831 5.879 13.127 12.365 18.926 19.259 0.58 0.689 2.068 2.575 2.826 3.526 0.723 0.982 1.439 1.969 2.145 2.963 2.626 3.695 5.069 7.517 7.393 11.407 2.13 3.565 4.1 7.225 5.971 10.932 0.932 1.846 1.816 3.717 2.683 5.595 0.388 0.84 0.762 1.687 1.135 2.533 3.208 7.885 5.803 16.011 7.922 24.252 1.021 3.97 1.886 7.979 2.659 12.004 0.386 2.01 0.726 4.029 1.051 6.05 0.108 0.674 0.206 1.351 0.305 2.026 0.011 0.096 0.022 0.186 0.035 0.293 2.018 16.779 1.871 33.798-0.104 50.571-0.063 0.426-0.123 0.853-0.187 1.278-0.299 1.981-0.64 3.954-0.995 5.926-0.764 4.247-1.685 8.464-2.705 12.656-1.934 7.949-4.385 15.769-7.253 23.429-0.555 1.482-1.14 2.953-1.734 4.42-0.29 0.658-0.58 1.315-0.875 1.971-1.694 3.763-3.54 7.456-5.482 11.096-3.658 6.855-7.817 13.438-12.385 19.722-0.269 0.37-0.546 0.734-0.82 1.101-1.025 1.281-2.075 2.541-3.139 3.788-2.529 2.964-5.203 5.803-7.966 8.549-2.52 2.504-5.162 4.883-7.874 7.176-0.481 0.406-1.394 1.132-2.173 1.747-1.064 0.776-2.136 1.54-3.221 2.286-11.633 8.002-24.903 13.404-37.745 19.129-25.515 11.375-51.285 23.315-71.033 43.703-32.995 34.064-39.03 81.337-36.148 127.161-9.396-5.425-18.567-11.244-27.499-17.395C483.807 700.703 479.257 697.411 474.77 694.036z" p-id="1126" fill="#ffffff"></path><path d="M451.944 801.989c-2.595-5.706-7.308-10.35-13.597-11.222-0.078-0.011-0.155-0.024-0.233-0.035-1.525-0.413-3.112-0.659-4.74-0.721-9.789-1.599-19.424-3.929-28.727-7.442-0.139-0.052-0.307-0.118-0.49-0.191-0.664-0.302-1.331-0.598-1.992-0.909-2.052-0.965-4.052-2.037-6.029-3.146-1.897-1.065-3.735-2.232-5.547-3.434-0.766-0.508-1.512-1.046-2.259-1.582-0.01-0.009-0.019-0.015-0.029-0.024-3.107-2.551-5.967-5.392-8.652-8.381-0.499-0.555-1.506-1.814-2.241-2.736-0.895-1.267-1.765-2.55-2.602-3.856-2.132-3.327-3.996-6.82-5.721-10.372-0.344-0.709-1.06-2.347-1.546-3.46-0.573-1.47-1.128-2.947-1.66-4.431-6.187-17.266-8.297-35.424-13.355-52.954-5.581-19.343-15.91-37.054-29.689-51.685-24.206-25.702-60.735-40.357-95.962-38.863-35.533 1.507-69.831 19.775-86.18 52.234-9.444 18.751-12.811 40.157-13.132 60.995-0.295 19.136 3.643 37.919 12.151 55.059 16.341 32.918 51.688 50.875 85.851 59.38 40.486 10.079 82.496 9.288 123.884 9.288 27.706 0 55.411 0 83.117 0 2.312 0 4.548-0.381 6.652-1.074 1.43-0.427 2.864-1.039 4.328-1.896 4.863-2.849 8.502-7.564 9.998-13.002 0.124-0.451 0.224-0.913 0.314-1.38 0.303-1.426 0.463-2.899 0.463-4.404C454.319 808.255 453.456 804.937 451.944 801.989zM263.377 646.276C259.733 644.803 261.753 645.59 263.377 646.276L263.377 646.276zM192.874 652.033c0.006-0.004 0.013-0.008 0.019-0.013C189.424 654.788 191.676 652.906 192.874 652.033zM185.151 659.502C185.731 658.735 186.109 658.265 185.151 659.502L185.151 659.502zM183.948 753.674C185.448 755.557 184.779 754.746 183.948 753.674L183.948 753.674zM324.154 789.99c-12.513 0-25.007-0.114-37.504-0.815-5.323-0.299-10.639-0.719-15.946-1.229-2.555-0.245-5.105-0.531-7.654-0.832-0.197-0.023-0.393-0.05-0.589-0.074-0.807-0.113-2.711-0.373-3.494-0.491-9.525-1.434-18.973-3.399-28.253-5.982-4.088-1.138-8.127-2.447-12.121-3.88-1.517-0.544-3.019-1.129-4.516-1.727-1.073-0.478-2.139-0.973-3.2-1.477-3.419-1.626-6.742-3.446-9.984-5.399-1.566-0.944-3.095-1.949-4.608-2.975-0.687-0.466-1.36-0.951-2.034-1.436-2.462-2.014-4.797-4.18-7.02-6.453-1.199-1.226-2.338-2.509-3.453-3.811-0.151-0.176-0.294-0.36-0.442-0.539-0.121-0.162-0.236-0.318-0.332-0.452-1.989-2.79-3.737-5.745-5.328-8.776-0.297-0.566-0.574-1.143-0.853-1.718-0.421-1.057-1.379-3.39-1.72-4.392-1.181-3.475-2.074-7.042-2.811-10.634-0.144-0.702-0.266-1.409-0.39-2.115-0.074-0.869-0.501-4.395-0.588-5.642-0.557-8.028-0.187-16.1 0.696-24.094 0.07-0.269 0.69-4.626 0.904-5.856 0.368-2.116 0.807-4.216 1.299-6.307 0.738-3.132 1.683-6.21 2.784-9.232 0.426-0.969 1.262-2.906 1.682-3.74 0.822-1.632 1.732-3.218 2.672-4.785 0.903-1.507 1.888-2.962 2.898-4.398 0.333-0.395 0.669-0.788 1.006-1.179 2.25-2.604 4.734-4.998 7.337-7.245 0.188-0.163 0.385-0.315 0.577-0.475 1.51-1.084 3.071-2.094 4.656-3.063 2.091-1.279 4.259-2.424 6.47-3.48 0.945-0.392 2.221-0.917 2.919-1.166 1.883-0.671 3.798-1.244 5.723-1.778 2.87-0.797 5.79-1.4 8.727-1.892 0.568-0.057 1.135-0.116 1.703-0.166 2.045-0.181 4.098-0.267 6.15-0.317 3.556-0.086 7.115 0.068 10.659 0.359 0.624 0.051 1.247 0.121 1.87 0.187 1.613 0.262 3.221 0.556 4.821 0.885 3.576 0.736 7.101 1.701 10.581 2.799 1.754 0.553 3.487 1.174 5.21 1.816 0.428 0.16 0.851 0.333 1.276 0.501 0.128 0.056 0.248 0.109 0.354 0.157 6.151 2.789 11.994 6.228 17.489 10.15 0.804 0.647 2.62 2.079 3.343 2.703 1.453 1.254 2.854 2.568 4.234 3.901 2.774 2.679 5.351 5.554 7.795 8.535 0.478 0.656 0.95 1.318 1.415 1.983 1.149 1.644 2.223 3.338 3.272 5.047 2.159 3.516 4.043 7.193 5.754 10.946 0.331 0.848 0.651 1.701 0.964 2.556 0.743 2.032 1.394 4.096 2.014 6.168 1.397 4.668 2.326 9.439 3.297 14.207 5.206 25.573 11.82 52.663 27.857 73.84 0.843 1.113 1.706 2.204 2.579 3.283C337.585 789.99 330.87 789.99 324.154 789.99z" p-id="1127" fill="#ffffff"></path><path d="M867.554 672.315c-4.019-17.95-13.462-35.062-26.636-47.905-26.126-25.469-64.086-32.002-98.887-25.151-35.592 7.007-67.814 31.162-84.869 63.077-8.136 15.225-11.634 31.116-15.266 47.772-1.615 7.406-3.433 14.769-5.611 22.031-1.091 3.639-2.317 7.237-3.646 10.796-0.217 0.581-0.667 1.692-1.03 2.586-0.505 1.11-1.021 2.216-1.554 3.313-1.438 2.962-3.049 5.836-4.766 8.644-0.853 1.395-1.764 2.753-2.691 4.1-0.3 0.435-0.617 0.858-0.928 1.285-2.259 2.749-4.737 5.311-7.336 7.738-1.027 0.96-2.099 1.87-3.18 2.768-0.716 0.516-1.439 1.022-2.168 1.519-3.038 2.071-6.244 3.884-9.511 5.564-0.842 0.433-1.695 0.846-2.553 1.247 0.463-0.258-4.251 1.71-5.506 2.153-8.158 2.882-16.636 4.782-25.175 6.158-1.643 0.06-3.244 0.306-4.782 0.723-0.077 0.011-0.153 0.023-0.23 0.034-6.289 0.871-11.001 5.516-13.597 11.222-1.512 2.948-2.375 6.266-2.375 9.757 0 1.505 0.161 2.978 0.463 4.404 0.089 0.467 0.19 0.929 0.314 1.38 1.496 5.438 5.135 10.153 9.998 13.002 1.464 0.858 2.898 1.469 4.328 1.896 2.104 0.694 4.34 1.074 6.652 1.074 36.137 0 72.273 0 108.41 0 44.678 0 90.273-2.62 131.687-20.808 32.002-14.055 56.583-42.191 62.648-77.027C873.418 714.63 872.213 693.124 867.554 672.315zM756.283 640.661C754.432 640.922 755.199 640.804 756.283 640.661L756.283 640.661zM621.849 762.652c-0.004 0.005-0.009 0.01-0.013 0.016C624.696 758.818 622.773 761.519 621.849 762.652zM806.627 762.661C807.595 761.894 807.287 762.145 806.627 762.661L806.627 762.661zM827.875 723.579c-0.081 0.486-0.155 0.974-0.239 1.459-0.322 1.847-0.724 3.678-1.156 5.502-0.823 3.475-1.913 6.881-3.175 10.221-0.209 0.445-0.412 0.893-0.626 1.336-0.749 1.552-1.575 3.065-2.427 4.562-0.846 1.486-1.767 2.928-2.712 4.353-0.408 0.616-0.838 1.218-1.267 1.819-1.985 2.401-4.135 4.662-6.381 6.818-1.259 1.208-2.574 2.356-3.905 3.483-0.176 0.149-0.359 0.29-0.537 0.437-0.249 0.189-0.487 0.366-0.68 0.506-5.592 4.028-11.651 7.373-17.903 10.262-1.087 0.457-3.112 1.314-3.956 1.636-1.937 0.739-3.896 1.419-5.861 2.081-4.448 1.5-8.97 2.773-13.518 3.931-4.449 1.133-8.942 2.085-13.451 2.948-2.349 0.45-4.707 0.85-7.067 1.237-1.204 0.197-2.411 0.379-3.617 0.56-0.34 0.051-0.624 0.094-0.87 0.132-27.677 3.552-55.708 3.506-83.643 3.282 7.303-9.218 13.097-19.537 17.834-30.93 6.922-16.648 10.52-34.344 14.124-51.935 0.886-4.322 2.082-8.576 3.472-12.761 0.327-0.985 0.677-1.961 1.039-2.933 0.204-0.389 1.853-4.286 2.437-5.462 1.805-3.636 3.878-7.134 6.102-10.528 0.496-0.757 1.011-1.501 1.533-2.241 0.536-0.654 2.672-3.414 3.458-4.315 2.54-2.913 5.286-5.642 8.14-8.246 1.246-1.137 2.537-2.224 3.841-3.295 0.723-0.529 1.447-1.058 2.18-1.572 3.077-2.156 6.297-4.103 9.585-5.917 1.632-0.901 3.299-1.736 4.976-2.55 0.702-0.341 1.413-0.662 2.123-0.985 6.905-2.731 14.113-4.668 21.428-5.913 0.117-0.02 0.235-0.035 0.352-0.054 0.036-0.004 0.072-0.008 0.107-0.012 1.778-0.193 3.562-0.317 5.347-0.416 3.829-0.214 7.669-0.159 11.495 0.073 0.818 0.05 1.635 0.118 2.45 0.194 1.014 0.137 2.3 0.317 3.007 0.448 3.667 0.677 7.278 1.635 10.827 2.777 1.246 0.401 2.475 0.853 3.698 1.32 0.452 0.211 0.907 0.418 1.356 0.635 3.31 1.594 6.475 3.475 9.516 5.532 0.381 0.257 0.75 0.531 1.123 0.798 1.055 0.882 2.086 1.793 3.094 2.729 1.262 1.172 2.459 2.412 3.632 3.673 0.626 0.673 1.931 2.283 2.71 3.239 1.509 2.184 2.886 4.461 4.166 6.786 0.768 1.395 1.462 2.828 2.135 4.271 0.333 0.879 0.653 1.763 0.962 2.65 1.33 3.823 2.314 7.759 3.11 11.725 0.458 2.283 0.823 4.586 1.178 6.886 0.15 1.262 0.291 2.525 0.416 3.789C828.693 706.237 828.751 714.949 827.875 723.579z" p-id="1128" fill="#ffffff"></path></svg>