<?xml version="1.0" standalone="no"?><!DOCTYPE svg PUBLIC "-//W3C//DTD SVG 1.1//EN" "http://www.w3.org/Graphics/SVG/1.1/DTD/svg11.dtd"><svg t="1546251218971" class="icon" style="" viewBox="0 0 1024 1024" version="1.1" xmlns="http://www.w3.org/2000/svg" p-id="7492" xmlns:xlink="http://www.w3.org/1999/xlink" width="200" height="200"><defs><style type="text/css"></style></defs><path d="M826.349 378.348l-0.095-0.177c-14.51-29.481-25.498-55.038-34.688-114.499l-2.339-15.134-14.462 5.036c-42.121 14.666-72.241 42.058-89.525 81.415-15.811 36.004-20.822 82.478-14.927 138.253-80.409-81.354-115.408-213.738-106.951-404.219l0.823-18.529-17.598 5.862c-60.437 20.132-109.25 51.12-145.083 92.102-35.903 41.063-59.271 92.708-69.453 153.501-17.342 103.528 6.691 212.208 19.603 270.594 1.291 5.837 2.536 11.467 3.629 16.6-31.68-21.531-58.835-63.888-80.8-126.077-12.285-34.785-19.509-66.525-22.722-82.35l-3.69-18.177-15.653 9.95c-71.641 45.537-104.27 148.087-104.27 224.098 0 206.059 168.315 373.699 375.202 373.699 100.183 0 194.379-38.847 265.235-109.385 70.911-70.589 109.962-164.458 109.96-264.314C878.546 557.762 873.455 458.798 826.349 378.348zM748.548 545.896c-15.428-54.51-20.917-133.927-2.466-180.451 3.766 9.983 9.038 21.722 14.931 34.844l0.044 0.097c20.992 46.737 52.71 117.348 53.355 196.083-7.12 86.406-41.4 164.854-96.535 220.896-27.662 28.115-59.771 50.017-95.438 65.095-37.028 15.659-77.095 23.599-119.088 23.599-83.473 0-160.975-31.179-218.229-87.791-57.571-56.927-90.543-135.685-92.841-221.765-0.864-32.515 16.534-93.079 27.655-112.498 0.525 1.527 1.064 3.108 1.617 4.727 9.574 28.052 24.042 70.443 54.363 107.459 36.943 45.101 87.474 69.381 150.19 72.167l17.135 0.762-4.202-16.63c-2.006-7.939-4.144-16.226-6.365-24.833l-0.195-0.756c-19.301-74.785-43.322-167.858-41.589-257.36 0.939-48.436 9.674-90.97 25.961-126.422 18.008-39.194 45.929-71.293 83.045-95.494 0.736 118.645 21.795 219.519 61.016 292.062 41.613 76.969 100.366 118.156 174.63 122.418l17.882 1.025L748.548 545.896zM772.692 395.159 772.692 395.159 772.692 395.159 772.692 395.159z" p-id="7493" fill="#d81e06"></path></svg>