<?xml version="1.0" standalone="no"?><!DOCTYPE svg PUBLIC "-//W3C//DTD SVG 1.1//EN" "http://www.w3.org/Graphics/SVG/1.1/DTD/svg11.dtd"><svg t="1546255115033" class="icon" style="" viewBox="0 0 1024 1024" version="1.1" xmlns="http://www.w3.org/2000/svg" p-id="36340" xmlns:xlink="http://www.w3.org/1999/xlink" width="200" height="200"><defs><style type="text/css"></style></defs><path d="M977.92 504.832L551.936 87.04c-3.072-2.56-17.92-15.872-27.648-15.872-9.728 0-26.624 13.312-30.208 15.872L40.448 513.536c-9.728 8.704-20.48 20.992-19.968 35.84 1.536 24.064 22.016 43.52 47.104 43.52h68.608v275.456c1.024 39.424 40.448 84.48 90.624 84.992l400.384 0.512c40.448 0 63.488-32.256 63.488-88.576v-236.544c0-40.96-36.352-75.264-79.36-75.264H395.776c-21.504 0-39.424 17.408-39.424 39.424V783.36c0 9.216 3.072 16.384 8.192 21.504 5.632 5.12 12.8 7.168 22.016 6.656 27.136-1.024 27.136-28.16 27.136-38.912v-148.992c0-8.192 3.584-12.8 23.04-12.8h173.568c12.288 0 23.04 10.752 23.04 23.04v235.52c0 12.288-10.752 23.04-23.04 23.04H295.424c-42.496 2.048-69.12-2.56-82.432-15.36-11.776-11.264-11.776-27.648-11.776-45.056V824.32l0.512-257.024c0-7.168-2.56-13.312-7.68-18.432-14.848-14.336-46.592-15.872-63.488-15.872l-16.896-1.024L522.752 138.24l390.656 392.704h-12.8c-22.016 0-61.952 13.824-61.952 40.96v295.936c0 17.92-5.12 22.016-29.184 23.04h-42.496c-24.064 0-39.424 10.752-39.424 26.624-0.512 11.264 2.048 19.456 7.168 25.088 7.68 8.192 20.48 9.216 32.256 9.216h77.312c48.64-3.072 54.784-33.792 54.272-66.56v-297.984h51.2c24.576 0 45.056-18.432 47.104-41.984 1.024-15.872-6.144-30.72-18.944-40.448z" fill="" p-id="36341"></path></svg>