<?xml version="1.0" standalone="no"?><!DOCTYPE svg PUBLIC "-//W3C//DTD SVG 1.1//EN" "http://www.w3.org/Graphics/SVG/1.1/DTD/svg11.dtd"><svg t="1546253973914" class="icon" style="" viewBox="0 0 1024 1024" version="1.1" xmlns="http://www.w3.org/2000/svg" p-id="14628" xmlns:xlink="http://www.w3.org/1999/xlink" width="200" height="200"><defs><style type="text/css"></style></defs><path d="M927.9 544.2c17.7 0 32-14.3 32-32s-14.3-32-32-32l-96.1-0.1v-63.5l96.1 0.1c17.7 0 32-14.3 32-32s-14.3-32-32-32l-96.1-0.1 0.1-100.4c0-33-27-60-60-60l-100.4-0.1 0.1-96.1c0-17.7-14.3-32-32-32s-32 14.3-32 32l-0.1 96.1H544l0.1-96.1c0-17.7-14.3-32-32-32s-32 14.3-32 32l-0.1 96.1h-63.5l0.1-96.1c0-17.7-14.3-32-32-32s-32 14.3-32 32l-0.1 96.1-100.2-0.1c-33 0-60 27-60 60l-0.1 100.4-96.1-0.1c-17.7 0-32 14.3-32 32s14.3 32 32 32l96.1 0.1v63.5l-96.1-0.1c-17.7 0-32 14.3-32 32s14.3 32 32 32l96.1 0.1v63.5l-96.2-0.2c-17.7 0-32 14.3-32 32s14.3 32 32 32l96.1 0.1-0.1 100.4c0 33 27 60 60 60l100.4 0.1-0.1 96.1c0 17.7 14.3 32 32 32s32-14.3 32-32l0.1-96.1h63.5l-0.1 96.1c0 17.7 14.3 32 32 32s32-14.3 32-32l0.1-96.1h63.5l-0.1 96.1c0 17.7 14.3 32 32 32s32-14.3 32-32l0.1-96.1 100.4 0.1c33 0 60-27 60-60l0.1-100.4 96.1 0.1c17.7 0 32-14.3 32-32s-14.3-32-32-32l-96.1-0.1V544l96 0.2zM767.7 768l-511.7-0.3 0.3-511.7 511.7 0.3-0.3 511.7z" p-id="14629" fill="#00675c"></path><path d="M379 704.9l265.9 0.1c33 0 60-27 60-60l0.1-265.9c0-33-27-60-60-60l-265.8-0.1c-33 0-60 27-60 60l-0.2 265.8c0 33 27 60 60 60.1z m4.1-321.9l257.9 0.1-0.1 257.9-257.9-0.1 0.1-257.9z" p-id="14630" fill="#00675c"></path></svg>