<?xml version="1.0" standalone="no"?><!DOCTYPE svg PUBLIC "-//W3C//DTD SVG 1.1//EN" "http://www.w3.org/Graphics/SVG/1.1/DTD/svg11.dtd"><svg t="1546254748926" class="icon" style="" viewBox="0 0 1024 1024" version="1.1" xmlns="http://www.w3.org/2000/svg" p-id="27724" xmlns:xlink="http://www.w3.org/1999/xlink" width="200" height="200"><defs><style type="text/css"></style></defs><path d="M286.05071258 879.61428833C219.6879845 879.61428833 164.38571167 825.89207995 164.38571167 757.94928742s53.72220838-121.66500092 121.66500092-121.66500092c26.86110385 0 52.14214326 9.48038943 74.26305238 25.28103939l6.32025984 4.74019472V276.02947847c0-23.70097427 18.96077955-42.66175381 41.08168869-42.66175314l406.07669143-47.40194854h3.16012958C839.07344433 184.38571167 859.61428833 203.34649122 859.61428833 227.04746548v456.63876955c0 33.18136371-12.6405197 63.20259781-36.34149396 85.32350694-22.12090913 22.12090913-53.72220838 34.76142883-85.32350696 34.76142884-66.36272808 0-121.66500092-53.72220838-121.66500091-121.66500092 0-66.36272808 53.72220838-121.66500092 121.66500092-121.66500092 26.86110385 0 53.72220838 9.48038943 74.26305238 25.28103941l6.32025985 4.74019472V378.73369983l-410.81688615 44.24181895v334.97376863c-1.58006513 67.94279254-55.30227283 121.66500092-121.66500092 121.66500092z m1e-8-200.66824802c-44.24181827 0-80.58331223 36.34149397-80.58331224 80.58331223s36.34149397 80.58331223 80.58331224 80.58331224 80.58331223-36.34149397 80.58331222-80.58331224c-1.58006513-45.8218834-36.34149397-80.58331223-80.58331222-80.58331223z m451.89857483-75.84311752c-44.24181827 0-80.58331223 36.34149397-80.58331223 80.58331224s36.34149397 80.58331223 80.58331223 80.58331223 80.58331223-36.34149397 80.58331223-80.58331223-36.34149397-80.58331223-80.58331223-80.58331224z m-331.81363905-221.20909269l410.81688614-44.24181827V225.46740035l-406.07669142 47.40194853h-4.74019472v109.02448122z" fill="#0F88EB" p-id="27725"></path></svg>