<?xml version="1.0" standalone="no"?><!DOCTYPE svg PUBLIC "-//W3C//DTD SVG 1.1//EN" "http://www.w3.org/Graphics/SVG/1.1/DTD/svg11.dtd"><svg t="1546249663488" class="icon" style="" viewBox="0 0 1024 1024" version="1.1" xmlns="http://www.w3.org/2000/svg" p-id="2673" xmlns:xlink="http://www.w3.org/1999/xlink" width="200" height="200"><defs><style type="text/css"></style></defs><path d="M881.005238 239.57747c-2.266623-0.86367-4.63967-1.468444-7.15598-1.468444L141.451616 238.109026c-2.536776 0-4.929266 0.61603-7.210215 1.493004-18.323321 3.615341-32.695656 19.986193-32.695656 39.681768l0 457.394335c0 22.550599 18.031679 40.461527 40.276309 40.461527l731.645512 0c21.787212 0 40.276309-18.11559 40.276309-40.461527L913.743874 279.283798C913.744897 259.349793 899.640668 243.093551 881.005238 239.57747zM142.15565 288.878317 338.278423 498.372631c-0.405229 0.363274-0.920976 0.512676-1.301645 0.914836L142.15565 705.061041 142.15565 288.878317zM520.356318 606.294596c-7.019881 7.515161-18.430768 7.475252-25.420973 0l0.010233 0L188.93814 279.422967l637.556601-0.128937L520.356318 606.294596zM365.868805 527.84385l99.431593 106.21202c0 0 0 0 0.010233 0 11.262508 12.036128 26.303063 18.658965 42.354644 18.658965 16.021905 0 31.052227-6.622838 42.335201-18.658965l96.467075-103.040794 199.207018 205.523887-677.530011 0.137123L365.868805 527.84385zM674.244174 501.343289 873.142154 288.892643l0.306992 417.956114L674.244174 501.343289z" p-id="2674" fill="#ffffff"></path></svg>