<?xml version="1.0" standalone="no"?><!DOCTYPE svg PUBLIC "-//W3C//DTD SVG 1.1//EN" "http://www.w3.org/Graphics/SVG/1.1/DTD/svg11.dtd"><svg t="1546254840739" class="icon" style="" viewBox="0 0 1251 1024" version="1.1" xmlns="http://www.w3.org/2000/svg" p-id="32239" xmlns:xlink="http://www.w3.org/1999/xlink" width="244.3359375" height="200"><defs><style type="text/css"></style></defs><path d="M1063.442963 0H188.112593C84.347259 0 0 83.171556 0 185.457778v653.084444C0 940.828444 84.347259 1024 188.112593 1024h875.33037c103.765333 0 188.112593-83.171556 188.112593-185.457778V185.457778C1251.403852 83.285333 1167.056593 0 1063.442963 0zM75.282963 549.015704h91.894518v131.602963H75.282963v-131.602963z m91.780741-74.183111H75.093333V343.22963h91.894519v131.602963zM242.270815 74.221037h766.78637v875.557926H242.308741V74.221037zM1176.272593 474.832593h-91.894519V343.22963h91.894519v131.602963z m-91.894519 74.183111h91.894519v131.602963h-91.894519v-131.602963z m91.894519-363.557926v83.702518h-91.894519V76.231111c52.224 9.633185 91.894519 54.916741 91.894519 109.188741zM167.063704 76.231111v192.891259H75.093333V185.457778c0.151704-54.234074 39.670519-99.555556 91.894519-109.188741z m-91.780741 762.311111v-83.740444h91.894518v193.042963c-52.337778-9.784889-91.894519-55.068444-91.894518-109.340445z m1009.095111 109.150815v-192.891259h91.894519v83.702518c0 54.234074-39.670519 99.555556-91.894519 109.188741z m-277.504-510.482963A84.992 84.992 0 0 1 850.678519 512c0 31.250963-16.497778 59.164444-43.842371 74.752l-274.583704 156.406519a88.329481 88.329481 0 0 1-87.722666 0 84.992 84.992 0 0 1-43.880297-74.752V355.593481c0-31.250963 16.497778-59.164444 43.880297-74.714074a87.988148 87.988148 0 0 1 87.570963 0l274.735407 156.368593z m-37.584593 85.333333a12.250074 12.250074 0 0 0 6.295704-10.581333c0-2.616889-0.83437-7.585185-6.144-10.619259L494.554074 345.012148a12.515556 12.515556 0 0 0-12.439704 0 12.136296 12.136296 0 0 0-6.144 10.619259v312.775112c0 6.181926 3.792593 9.216 6.144 10.619259 2.389333 1.327407 7.130074 3.034074 12.439704 0l274.735407-156.406519z" p-id="32240"></path></svg>