<?xml version="1.0" standalone="no"?><!DOCTYPE svg PUBLIC "-//W3C//DTD SVG 1.1//EN" "http://www.w3.org/Graphics/SVG/1.1/DTD/svg11.dtd"><svg t="1546254087602" class="icon" style="" viewBox="0 0 1024 1024" version="1.1" xmlns="http://www.w3.org/2000/svg" p-id="18779" xmlns:xlink="http://www.w3.org/1999/xlink" width="200" height="200"><defs><style type="text/css"></style></defs><path d="M127.99999999 832l1e-8-632.95a7.05 7.05 0 0 1 7.05-7.05l753.9 0a7.05 7.05 0 0 1 7.05 7.05l0 625.9a7.05 7.05 0 0 1-7.05 7.05L127.99999999 832M960 870.49l0-717A25.51 25.51 0 0 0 934.49 128l-844.99999999 0A25.51 25.51 0 0 0 64 153.51l0 717A25.51 25.51 0 0 0 89.51 896l844.99999999 0A25.51 25.51 0 0 0 960 870.49z" fill="#d4237a" p-id="18780"></path><path d="M809.28 346.92l7 10.16a25.82 25.82 0 0 1-6.47 35.91999999l-213.35 147.90000002a7.66 7.66 0 0 0 0 12.59999999L809.81 701.38999999a25.82 25.82 0 0 1 6.51 35.93000001l-7 10.16a25.82 25.82 0 0 1-35.97 6.52l-271.42-188.15a22.69 22.69 0 0 1 0-37.3L773.35 340.41a25.82 25.82 0 0 1 35.93 6.51z" fill="#d4237a" p-id="18781"></path><path d="M512 384l-320 0 0-64 320 0 0 64Z" fill="#d4237a" p-id="18782"></path></svg>