<?xml version="1.0" standalone="no"?><!DOCTYPE svg PUBLIC "-//W3C//DTD SVG 1.1//EN" "http://www.w3.org/Graphics/SVG/1.1/DTD/svg11.dtd"><svg t="1546254876403" class="icon" style="" viewBox="0 0 1024 1024" version="1.1" xmlns="http://www.w3.org/2000/svg" p-id="34692" xmlns:xlink="http://www.w3.org/1999/xlink" width="200" height="200"><defs><style type="text/css"></style></defs><path d="M208.128 751.061333l156.103111-90.168889 54.613333-84.252444a55.068444 55.068444 0 0 0 27.562667 30.819556l23.978667 11.690666-54.812445 84.522667c-2.858667 4.408889-6.698667 8.049778-11.235555 10.695111l-163.015111 94.136889a33.137778 33.137778 0 0 1-45.312-12.145778 33.137778 33.137778 0 0 1 12.117333-45.297778z m482.403556-356.764444a77.425778 77.425778 0 0 1 0-154.808889 77.411556 77.411556 0 0 1 0 154.808889z m-37.034667 74.808889a55.580444 55.580444 0 0 0 18.360889-44.245334l35.911111 24.092445 67.000889-73.400889a33.066667 33.066667 0 0 1 46.862222-2.147556 33.180444 33.180444 0 0 1 2.133333 46.862223l-86.272 94.520889a33.095111 33.095111 0 0 1-42.965333 5.162666l-55.978667-37.589333 14.947556-13.255111z" p-id="34693" fill="#880f0f"></path><path d="M584.718222 650.225778l-128.625778-62.634667a33.194667 33.194667 0 0 1-7.495111-54.613333l113.905778-101.333334-67.953778-45.027555-99.427555 28.444444a33.237333 33.237333 0 0 1-41.031111-22.784 33.208889 33.208889 0 0 1 22.755555-41.031111l114.161778-32.64a33.208889 33.208889 0 0 1 27.448889 4.238222l116.636444 77.312a32.995556 32.995556 0 0 1 14.748445 25.301334 33.024 33.024 0 0 1-11.022222 27.121778l-109.141334 97.024 117.048889 57.016888a33.080889 33.080889 0 0 1 17.336889 20.593778 33.052444 33.052444 0 0 1-3.640889 26.666667l-88.504889 143.317333a33.194667 33.194667 0 0 1-56.462222-34.858666l69.262222-112.113778z" p-id="34694" fill="#880f0f"></path></svg>