<?xml version="1.0" standalone="no"?><!DOCTYPE svg PUBLIC "-//W3C//DTD SVG 1.1//EN" "http://www.w3.org/Graphics/SVG/1.1/DTD/svg11.dtd"><svg t="1546251274859" class="icon" style="" viewBox="0 0 1024 1024" version="1.1" xmlns="http://www.w3.org/2000/svg" p-id="9750" xmlns:xlink="http://www.w3.org/1999/xlink" width="200" height="200"><defs><style type="text/css"></style></defs><path d="M372.752 992c-3.2 0-6.416-0.48-9.632-1.44l-0.64-0.16h-1.92l-261.6-87.792a40.608 40.608 0 0 1-9.472-4.816c-6.416-4.496-11.552-13.312-8.672-23.104l96.608-283.408v-0.16c2.736-9.952 11.232-16.688 21.344-16.688 1.92 0 4.016 0.32 5.936 0.8 5.776 1.6 10.752 5.296 13.632 10.432a22.4 22.4 0 0 1 2.24 16.688l-90.032 264.8 239.92 80.88c0.32 0.16 0.48 0.32 0.64 0.32 0.8 0.48 2.08 1.28 3.696 1.28h0.64l266.4-82.96-19.904-76.56a22.624 22.624 0 0 1 21.824-28.72c10.112 0 18.608 6.736 21.344 16.688l26.32 98.704 203.328 42.848-65.152-232.704a21.44 21.44 0 0 1 2.24-16.848c2.88-5.136 7.856-8.832 13.648-10.432 1.76-0.48 3.696-0.64 5.456-0.64 10.432 0 19.264 6.576 21.984 16.368l73.024 261.6c2.08 6.576 0.32 13.632-4.816 19.248l-1.44 1.44c-0.96 0.64-1.6 1.28-2.08 1.76l-0.48 0.48-0.32 0.16-0.16 0.16c-4.656 3.2-10.112 5.136-15.248 5.136-1.6 0-3.2-0.16-4.816-0.48l-272.992-57.296L375.952 992h-3.2z m149.088-219.872a27.84 27.84 0 0 1-16.688-5.616c-37.872-27.76-111.056-85.696-174.928-161.456-81.52-96.608-122.608-190.976-122.288-280.528 0-82.336 32.736-159.84 91.952-218.096 59.376-58.256 138.336-90.352 222.272-90.352 83.936 0 162.896 32.096 222.272 90.352 59.376 58.256 91.952 135.616 91.952 218.096 0 210.08-228.048 391.424-297.856 441.984a27.84 27.84 0 0 1-16.688 5.616z m-0.32-711.744c-148.928 0-270.096 118.272-270.096 263.52 0 179.904 195.632 332.528 255.648 375.056 4.336 3.056 9.472 4.816 14.768 4.816 5.296 0 10.432-1.6 14.768-4.816 59.856-42.528 255.648-195.152 255.648-375.056 0.16-145.408-121.328-263.52-270.736-263.52z m0.64 398.96c-71.088 0-128.864-57.456-128.864-128.224 0-70.768 57.296-128.224 127.744-128.224h1.12a128.288 128.288 0 0 1 128.224 128.224 128.288 128.288 0 0 1-128.224 128.224z m0-212.96c-47.184 0-84.096 36.912-84.096 84.096a84.16 84.16 0 0 0 84.096 84.096 84.16 84.16 0 0 0 84.096-84.096 84.16 84.16 0 0 0-84.096-84.096z m0 0" fill="#d6d675" p-id="9751"></path></svg>