<?xml version="1.0" standalone="no"?><!DOCTYPE svg PUBLIC "-//W3C//DTD SVG 1.1//EN" "http://www.w3.org/Graphics/SVG/1.1/DTD/svg11.dtd"><svg t="1546254499257" class="icon" style="" viewBox="0 0 1024 1024" version="1.1" xmlns="http://www.w3.org/2000/svg" p-id="20012" xmlns:xlink="http://www.w3.org/1999/xlink" width="200" height="200"><defs><style type="text/css"></style></defs><path d="M828.509091 497.519192c-11.032997 1.034343-21.03165 2.068687-29.306397 3.447811h-26.203367c-2.068687-6.206061-5.516498-9.998653-9.309091-9.998653-0.689562 0-1.034343 0-1.723906 0.344781-4.482155-53.441077-25.513805-102.4-58.268014-141.015488 0.344781-0.344781 1.034343-0.689562 1.379125-1.034343 2.758249-2.758249 2.413468-8.274747-0.344781-13.791246l18.618182-18.618182c6.895623-4.826936 14.825589-11.032997 23.100336-18.273401 22.065993-18.618182 19.997306-29.306397 14.480809-35.167676-5.861279-5.861279-16.204714-7.585185-35.167677 14.480808-6.895623 8.274747-13.446465 16.204714-18.273401 23.100336l-18.618182 18.618182c-5.516498-2.758249-11.032997-3.447811-13.791246-0.344781-0.344781 0.344781-0.689562 0.689562-1.034343 1.379125-38.615488-32.754209-87.574411-54.13064-141.015488-58.268014 0-0.689562 0.344781-1.034343 0.344781-1.723906 0-4.137374-4.137374-7.585185-9.998653-9.30909v-26.203367c1.379125-8.274747 2.758249-18.273401 3.447811-29.306398 2.413468-28.961616-6.550842-35.167677-14.480808-35.167677-7.929966 0-16.894276 6.206061-14.480808 35.167677 1.034343 10.688215 2.068687 21.03165 3.447812 29.306398v26.203367c-6.206061 2.068687-9.998653 5.516498-9.998654 9.30909 0 0.689562 0 1.034343 0.344781 1.723906-53.441077 4.482155-102.4 25.513805-141.015488 58.268014-0.344781-0.344781-0.689562-1.034343-1.034343-1.379125-2.758249-2.758249-8.274747-2.413468-13.791246 0.344781L317.198653 300.993939c-4.826936-6.895623-11.032997-14.825589-18.2734-23.100336-18.618182-22.065993-29.306397-19.997306-35.167677-14.480808-5.861279 5.861279-7.585185 16.204714 14.480808 35.167676 8.274747 6.895623 16.204714 13.446465 23.100337 18.273401l18.618181 18.618182c-2.758249 5.516498-3.447811 11.032997-0.344781 13.791246 0.344781 0.344781 0.689562 0.689562 1.379125 1.034343-32.754209 38.615488-54.13064 87.574411-58.268014 141.015488-0.689562 0-1.034343-0.344781-1.723905-0.344781-4.137374 0-7.585185 4.137374-9.309091 9.998653h-26.203367c-8.274747-1.379125-18.273401-2.758249-29.306398-3.447811-28.961616-2.413468-35.167677 6.550842-35.167676 14.480808 0 7.929966 6.206061 16.894276 35.167676 14.480808 10.688215-1.034343 21.03165-2.068687 29.306398-3.447811H251.690236c2.068687 6.206061 5.516498 9.998653 9.309091 9.998653 0.689562 0 1.034343 0 1.723905-0.344781 4.482155 53.441077 25.513805 102.4 58.268014 141.015488-0.344781 0.344781-1.034343 0.689562-1.379125 1.034343-2.758249 2.758249-2.413468 8.274747 0.344781 13.791246l-18.618181 18.618182c-6.895623 4.826936-14.825589 11.377778-23.100337 18.273401-22.065993 18.618182-19.997306 29.306397-14.480808 35.167676 5.861279 5.861279 16.204714 7.585185 35.167677-14.480808 6.895623-8.274747 13.446465-16.204714 18.2734-23.100336l18.618182-18.618182c5.516498 2.758249 11.032997 3.447811 13.791246 0.344781 0.344781-0.344781 0.689562-0.689562 1.034343-1.379125 38.615488 32.754209 87.574411 54.13064 141.015488 58.268014 0 0.689562-0.344781 1.034343-0.344781 1.723906 0 4.137374 4.137374 7.585185 9.998654 9.30909v26.203367c-1.379125 8.274747-2.758249 18.618182-3.447812 29.306398-2.413468 28.961616 6.550842 35.167677 14.480808 35.167677 7.929966 0 16.894276-6.206061 14.480808-35.167677-1.034343-11.032997-2.068687-21.03165-3.447811-29.306398v-26.203367c6.206061-2.068687 9.998653-5.516498 9.998653-9.30909 0-0.689562 0-1.034343-0.344781-1.723906 53.441077-4.482155 102.4-25.513805 141.015488-58.268014 0.344781 0.344781 0.689562 1.034343 1.034343 1.379125 2.758249 2.758249 8.274747 2.413468 13.791246-0.344781l18.618182 18.618182c4.826936 6.895623 11.377778 14.825589 18.273401 23.100336 18.618182 22.065993 29.306397 19.997306 35.167677 14.480808 5.861279-5.861279 7.585185-16.204714-14.480809-35.167676-8.274747-6.895623-16.204714-13.446465-23.100336-18.273401l-18.618182-18.618182c2.758249-5.516498 3.447811-11.032997 0.344781-13.791246-0.344781-0.344781-0.689562-0.689562-1.379125-1.034343 32.754209-38.615488 54.13064-87.574411 58.268014-141.015488 0.689562 0 1.034343 0.344781 1.723906 0.344781 4.137374 0 7.585185-4.137374 9.309091-9.998653h26.203367c8.274747 1.379125 18.618182 2.758249 29.306397 3.447811 28.961616 2.413468 35.167677-6.550842 35.167677-14.480808-0.344781-7.929966-6.206061-16.894276-35.167677-14.480808zM593.023569 416.840404c-8.96431 4.826936-19.652525 13.101684-30.685522 23.789899-7.929966 7.929966-14.825589 16.204714-19.652525 23.445118-5.861279-3.792593-12.06734-6.550842-18.962963-7.929966 1.723906-8.619529 2.758249-18.962963 2.758249-30.340741 0-15.17037-1.723906-28.961616-4.826936-38.615488 4.826936-1.723906 7.929966-4.482155 7.929966-7.585186 0-3.10303-3.10303-5.516498-7.585185-7.240404 2.758249-9.653872 4.137374-22.755556 4.137374-37.236363 0-12.756902-1.379125-24.13468-3.447812-33.09899 49.648485 2.758249 94.470034 22.410774 128.948149 53.441077-7.929966 4.826936-16.894276 12.412121-25.858586 21.03165-10.343434 10.343434-18.273401 20.686869-23.100337 29.306397-4.482155-2.068687-8.274747-2.413468-10.688215-0.344781-1.379125 2.758249-1.379125 6.895623 1.034343 11.377778z m-57.23367 60.3367c-4.826936-3.447811-10.343434-5.516498-16.204714-6.550841 1.034343-2.068687 1.723906-4.482155 2.413468-6.895623 6.206061 1.379125 11.722559 3.792593 16.894276 6.895623-1.034343 2.068687-2.068687 4.482155-3.10303 6.550841z m-23.789899 46.200674c-6.206061 0-11.377778-5.171717-11.377778-11.377778 0-6.206061 5.171717-11.377778 11.377778-11.377778 6.206061 0 11.377778 5.171717 11.377778 11.377778 0 6.206061-5.171717 11.377778-11.377778 11.377778z m-7.585185-53.096297c-5.861279 1.034343-11.377778 3.447811-16.204714 6.550842-0.689562-2.068687-1.723906-4.137374-3.10303-6.550842 5.171717-3.447811 10.688215-5.861279 16.894276-6.895622 0.689562 2.758249 1.379125 5.171717 2.413468 6.895622z m-27.237711 17.92862c-3.447811 4.826936-5.516498 10.343434-6.550841 16.204714-2.068687-1.034343-4.482155-1.723906-6.895623-2.413468 1.379125-6.206061 3.792593-11.722559 6.895623-16.894276 2.068687 1.034343 4.482155 2.068687 6.550841 3.10303z m-6.895623 31.375084c1.034343 5.861279 3.447811 11.377778 6.550842 16.204714-2.068687 0.689562-4.137374 1.723906-6.550842 3.10303-3.447811-5.171717-5.861279-10.688215-6.895622-16.894276 2.758249-0.689562 5.171717-1.379125 6.895622-2.413468z m17.92862 27.237711c4.826936 3.447811 10.343434 5.516498 16.204714 6.550841-1.034343 2.068687-1.723906 4.482155-2.413468 6.895623-6.206061-1.379125-11.722559-3.792593-16.894276-6.895623 1.034343-2.413468 2.068687-4.482155 3.10303-6.550841z m31.375084 6.550841c5.861279-1.034343 11.377778-3.447811 16.204714-6.550841 0.689562 2.068687 1.723906 4.137374 3.10303 6.550841-5.171717 3.447811-10.688215 5.861279-16.894276 6.895623-0.689562-2.413468-1.379125-4.826936-2.413468-6.895623z m27.237711-17.583838c3.447811-4.826936 5.516498-10.343434 6.550841-16.204714 2.068687 1.034343 4.482155 1.723906 6.895623 2.413468-1.379125 6.206061-3.792593 11.722559-6.895623 16.894276-2.413468-1.034343-4.482155-2.068687-6.550841-3.10303z m6.550841-31.375084c-1.034343-5.861279-3.447811-11.377778-6.550841-16.204714 2.068687-0.689562 4.137374-1.723906 6.550841-3.10303 3.447811 5.171717 5.861279 10.688215 6.895623 16.894276-2.413468 0.689562-4.826936 1.379125-6.895623 2.413468z m-51.717171-131.706397c-4.482155 1.723906-7.585185 4.137374-7.585186 7.240404 0 3.10303 3.10303 5.861279 7.929967 7.585185-2.758249 9.653872-4.826936 23.100337-4.826936 38.615488 0 11.377778 1.034343 21.721212 2.758249 30.340741-6.895623 1.379125-13.446465 4.137374-18.962963 7.929966-4.826936-7.240404-11.722559-15.515152-19.652525-23.445118-10.688215-10.688215-21.721212-19.307744-30.685522-23.789899 2.413468-4.482155 2.413468-8.619529 0.344781-11.032996-2.068687-2.068687-6.206061-2.068687-10.688216 0.344781-4.826936-8.619529-13.101684-18.962963-23.100336-29.306398-8.96431-8.96431-17.92862-16.204714-25.858586-21.031649 34.478114-31.030303 79.644444-50.682828 128.948148-53.441078-2.068687 8.96431-3.447811 20.686869-3.447811 33.09899 0.689562 14.136027 2.068687 27.23771 4.826936 36.891583z m-124.810775 24.824242c10.343434 10.343434 20.686869 18.273401 29.306398 23.100337-2.068687 4.482155-2.413468 8.274747-0.344782 10.688215 2.068687 2.068687 6.206061 1.723906 11.032997-0.344781 4.826936 8.96431 13.101684 19.652525 23.789899 30.685522 7.929966 7.929966 16.204714 14.825589 23.445118 19.652525-3.792593 5.861279-6.550842 12.06734-7.929966 18.962963-8.619529-1.723906-18.962963-2.758249-30.340741-2.758249-15.17037 0-28.961616 1.723906-38.615488 4.826936-1.723906-4.826936-4.482155-7.929966-7.585186-7.929966-3.10303 0-5.516498 3.10303-7.240404 7.585185-9.653872-2.758249-22.755556-4.137374-37.236363-4.137374-12.756902 0-24.13468 1.379125-33.09899 3.447812 2.758249-49.648485 22.410774-94.470034 53.441077-128.948149 5.171717 7.240404 12.412121 16.204714 21.376431 25.169024z m-41.373737 128.948148c14.480808 0 27.582492-1.723906 37.236364-4.137374 1.723906 4.482155 4.137374 7.585185 7.240404 7.585186 3.10303 0 5.861279-3.10303 7.585185-7.929967 9.653872 2.758249 23.100337 4.826936 38.615488 4.826936 11.377778 0 21.721212-1.034343 30.340741-2.758249 1.379125 6.895623 4.137374 13.446465 7.929966 18.962963-7.240404 4.826936-15.515152 11.722559-23.445118 19.652525-10.688215 10.688215-19.307744 21.721212-23.789899 30.685522-4.482155-2.413468-8.619529-2.413468-11.032996-0.344781-2.068687 2.068687-2.068687 6.206061 0.344781 10.688216-8.619529 4.826936-18.962963 13.101684-29.306398 23.100336-8.96431 8.96431-16.204714 17.92862-21.031649 25.858586-31.030303-34.478114-50.682828-79.644444-53.441078-128.948148 8.619529 1.723906 20.342088 2.758249 32.754209 2.758249z m62.060606 120.673401c10.343434-10.343434 18.273401-20.686869 23.100337-29.306398 4.482155 2.068687 8.274747 2.413468 10.688215 0.344782 2.068687-2.068687 1.723906-6.206061-0.344781-11.032997 8.96431-4.826936 19.652525-13.101684 30.685522-23.789899 7.929966-7.929966 14.825589-16.204714 19.652525-23.445118 5.861279 3.792593 12.06734 6.550842 18.962963 7.929966-1.723906 8.619529-2.758249 18.962963-2.758249 30.340741 0 15.17037 1.723906 28.961616 4.826936 38.615488-4.826936 1.723906-7.929966 4.482155-7.929966 7.585186 0 3.10303 3.10303 5.516498 7.585185 7.240404-2.758249 9.653872-4.137374 22.755556-4.137374 37.236363 0 12.756902 1.379125 24.13468 3.447812 33.09899-49.648485-2.758249-94.470034-22.410774-128.948149-53.441077 7.240404-5.171717 16.204714-12.412121 25.169024-21.376431z m124.810774 4.137373c4.482155-1.723906 7.585185-4.137374 7.585186-7.240404 0-3.10303-3.10303-5.861279-7.929967-7.585185 2.758249-9.653872 4.826936-23.100337 4.826936-38.615488 0-11.377778-1.034343-21.721212-2.758249-30.340741 6.895623-1.379125 13.446465-4.137374 18.962963-7.929966 4.826936 7.240404 11.722559 15.515152 19.652525 23.445118 10.688215 10.688215 21.721212 19.307744 30.685522 23.789899-2.413468 4.482155-2.413468 8.619529-0.344781 11.032996 2.068687 2.068687 6.206061 2.068687 10.688216-0.344781 4.826936 8.619529 13.101684 18.962963 23.100336 29.306398 8.96431 8.96431 17.92862 16.204714 25.858586 21.031649-34.478114 31.030303-79.644444 50.682828-128.948148 53.441078 2.068687-8.96431 3.447811-20.686869 3.447811-33.09899-0.689562-14.136027-2.413468-27.582492-4.826936-36.891583z m124.810775-24.824242c-10.343434-10.343434-20.686869-18.273401-29.306398-23.100337 2.068687-4.482155 2.413468-8.274747 0.344782-10.688215-2.068687-2.068687-6.206061-1.723906-11.032997 0.344781-4.826936-8.96431-13.101684-19.652525-23.789899-30.685522-7.929966-7.929966-16.204714-14.825589-23.445118-19.652525 3.792593-5.861279 6.550842-12.06734 7.929966-18.962963 8.619529 1.723906 18.962963 2.758249 30.340741 2.758249 15.17037 0 28.961616-1.723906 38.615488-4.826936 1.723906 4.826936 4.482155 7.929966 7.585186 7.929966 3.10303 0 5.516498-3.10303 7.240404-7.585185 9.653872 2.758249 22.755556 4.137374 37.236363 4.137374 12.756902 0 24.13468-1.379125 33.09899-3.447812-2.758249 49.648485-22.410774 94.470034-53.441077 128.948149-5.171717-7.240404-12.412121-16.204714-21.376431-25.169024z m41.373737-128.948148c-14.480808 0-27.582492 1.723906-37.236364 4.137374-1.723906-4.482155-4.137374-7.585185-7.240404-7.585186-3.10303 0-5.861279 3.10303-7.585185 7.929967-9.653872-2.758249-23.100337-4.826936-38.615488-4.826936-11.377778 0-21.721212 1.034343-30.340741 2.758249-1.379125-6.895623-4.137374-13.446465-7.929966-18.962963 7.240404-4.826936 15.515152-11.722559 23.445118-19.652525 10.688215-10.688215 19.307744-21.721212 23.789899-30.685522 4.482155 2.413468 8.619529 2.413468 11.032996 0.344781 2.068687-2.068687 2.068687-6.206061-0.344781-10.688216 8.619529-4.826936 18.962963-13.101684 29.306398-23.100336 8.96431-8.96431 16.204714-17.92862 21.031649-25.858586 31.030303 34.478114 50.682828 79.644444 53.441078 128.948148-8.619529-1.723906-20.342088-2.758249-32.754209-2.758249z m-28.272054-146.187205C623.36431 317.198653 574.405387 295.477441 520.619529 293.408754c-1.034343-3.10303-2.413468-5.516498-3.792593-7.240404 58.612795 1.379125 112.053872 24.824242 151.358923 62.750169-2.068687 0-4.826936 1.034343-7.929967 2.413468zM503.380471 293.408754c-53.785859 2.068687-102.744781 23.789899-139.636363 57.923233-3.10303-1.379125-5.861279-2.068687-7.929967-2.413468 39.649832-37.925926 92.746128-61.371044 151.358923-62.750169-1.379125 1.723906-2.758249 4.137374-3.792593 7.240404z m-154.461952 62.060606c0.344781 2.068687 1.034343 4.826936 2.413468 7.929967-34.133333 37.236364-55.854545 86.195286-57.923233 139.981144-3.10303 1.034343-5.516498 2.413468-7.240404 3.792593 1.034343-58.957576 24.824242-112.053872 62.750169-151.703704zM293.408754 520.619529c2.068687 53.785859 23.789899 102.744781 57.923233 139.636363-1.379125 3.10303-2.068687 5.861279-2.413468 7.929967-37.925926-39.649832-61.371044-92.746128-62.750169-151.358923 1.723906 1.379125 4.137374 2.758249 7.240404 3.792593z m70.335354 152.048484c36.891582 34.133333 85.850505 55.854545 139.636363 57.923233 1.034343 3.10303 2.413468 5.516498 3.792593 7.240404-58.612795-1.379125-112.053872-24.824242-151.358923-62.750169 2.068687-0.344781 4.826936-1.034343 7.929967-2.413468z m156.875421 57.923233c53.785859-2.068687 102.744781-23.789899 139.636363-57.923233 3.10303 1.379125 5.861279 2.068687 7.929967 2.413468-39.649832 37.925926-92.746128 61.371044-151.358923 62.750169 1.379125-1.723906 2.758249-4.137374 3.792593-7.240404z m154.461952-62.405387c-0.344781-2.068687-1.034343-4.826936-2.413468-7.929967 34.133333-36.891582 55.854545-85.850505 57.923233-139.636363 3.10303-1.034343 5.516498-2.413468 7.240404-3.792593-1.034343 58.612795-24.824242 112.053872-62.750169 151.358923z m55.509765-164.805388c-2.068687-53.785859-23.789899-102.744781-57.923233-139.636363 1.379125-3.10303 2.068687-5.861279 2.413468-7.929967 37.925926 39.649832 61.371044 92.746128 62.750169 151.358923-1.723906-1.379125-4.137374-2.758249-7.240404-3.792593z" fill="#1296db" p-id="20013"></path><path d="M146.876768 749.554209m-9.998654 0a9.998653 9.998653 0 1 0 19.997307 0 9.998653 9.998653 0 1 0-19.997307 0Z" fill="#1296db" p-id="20014"></path><path d="M883.329293 749.554209m-9.998653 0a9.998653 9.998653 0 1 0 19.997306 0 9.998653 9.998653 0 1 0-19.997306 0Z" fill="#1296db" p-id="20015"></path></svg>