<?xml version="1.0" standalone="no"?><!DOCTYPE svg PUBLIC "-//W3C//DTD SVG 1.1//EN" "http://www.w3.org/Graphics/SVG/1.1/DTD/svg11.dtd"><svg t="1546251238567" class="icon" style="" viewBox="0 0 1024 1024" version="1.1" xmlns="http://www.w3.org/2000/svg" p-id="8074" xmlns:xlink="http://www.w3.org/1999/xlink" width="200" height="200"><defs><style type="text/css"></style></defs><path d="M758.48064 33.72416H264.72704c-102.60224 0-185.5232 84.24704-185.5232 188.17536v500.8256c0 82.7648 52.52608 152.89728 125.57312 178.14912 9.75872 50.49344 53.53984 88.68224 106.0672 88.68224 48.90496 0 90.35776-33.17248 103.64544-78.656h194.22848c13.27104 45.44256 54.6496 78.656 103.64544 78.656 52.4288 0 96.29312-38.12992 106.0672-88.67712 73.10336-25.2672 125.57312-95.48416 125.57312-178.15424v-500.8256c0.00128-104.06912-83.05664-188.17536-185.5232-188.17536z m123.7568 689.51936c0 69.03808-55.11168 124.99712-123.23584 124.99712h-0.30976l3.24992 35.11168c-0.1472 27.5904-26.2016 54.11584-51.19104 45.45792-24.1728-8.37376-39.83872-19.58656-39.83872-45.45792v-30.33984H352.30208v30.33984c0 25.95584-19.75552 45.51552-45.52064 45.51552-25.5872 0-45.51552-19.64416-45.51552-45.51552l3.25504-35.11168h-0.30848c-68.0576 0-123.232-55.8912-123.232-124.99712l-1.09056-219.18848 742.35136-0.41856v219.60704h-0.00384zM670.91072 443.36768l-90.41152-163.3024c-8.40064-14.75328-27.37536-20.032-42.14528-11.38432-14.8736 8.71296-19.85408 27.77984-11.35232 42.71104l83.22176 131.97568h-151.7184L368.4352 281.19424c-8.40064-14.75968-27.37024-20.0384-42.14528-11.3856-14.87488 8.7104-19.85408 27.77216-11.35232 42.71104l82.88 130.848H139.8912l1.08544-221.99168c0-69.03296 67.33952-126.9632 135.46496-126.9632h485.50016c68.06272 0 120.29568 57.86752 120.29568 126.9632v219.61088l1.08032 2.3808H670.91072zM352.30208 716.4608c33.51424 0 60.68352-27.17056 60.68352-60.68608 0-33.51936-27.17056-60.68992-60.68352-60.68992-33.5168 0-60.68736 27.17184-60.68736 60.68992 0 33.5168 27.17184 60.68608 60.68736 60.68608z m364.12416 0c33.51808 0 60.68736-27.17056 60.68736-60.68608 0-33.51936-27.17056-60.68992-60.68736-60.68992s-60.68864 27.17184-60.68864 60.68992c0 33.5168 27.17056 60.68608 60.68864 60.68608z m0 0" fill="#1296db" p-id="8075"></path></svg>