<?xml version="1.0" standalone="no"?><!DOCTYPE svg PUBLIC "-//W3C//DTD SVG 1.1//EN" "http://www.w3.org/Graphics/SVG/1.1/DTD/svg11.dtd"><svg t="1541153858245" class="icon" style="" viewBox="0 0 1024 1024" version="1.1" xmlns="http://www.w3.org/2000/svg" p-id="2860" xmlns:xlink="http://www.w3.org/1999/xlink" width="400" height="400"><defs><style type="text/css"></style></defs><path d="M530.368 385.792c-10.176-10.048-26.624-10.048-36.704 0l-146.624 143.712c-10.176 9.984-10.144 26.304 0 36.352 10.08 10.048 26.528 10.048 36.704 0l128.256-117.856 128.32 117.856c10.144 10.048 26.528 10.048 36.768 0 10.08-10.048 10.08-26.368 0-36.352l-146.688-143.712zM512 7.68c-271.456 0-491.52 220.064-491.52 491.52 0 271.52 220.064 491.52 491.52 491.52s491.52-220 491.52-491.52c0-271.456-220.064-491.52-491.52-491.52zM512 926.912c-236.288 0-427.712-191.488-427.712-427.712s191.424-427.712 427.712-427.712c236.192 0 427.712 191.488 427.712 427.712s-191.552 427.712-427.712 427.712z" p-id="2861" fill="#00bcd4"></path></svg>