<?xml version="1.0" standalone="no"?><!DOCTYPE svg PUBLIC "-//W3C//DTD SVG 1.1//EN" "http://www.w3.org/Graphics/SVG/1.1/DTD/svg11.dtd"><svg t="1546254788316" class="icon" style="" viewBox="0 0 1024 1024" version="1.1" xmlns="http://www.w3.org/2000/svg" p-id="30300" xmlns:xlink="http://www.w3.org/1999/xlink" width="200" height="200"><defs><style type="text/css"></style></defs><path d="M850.294784 195.18464V173.105152c0-46.628864-37.90848-84.56192-84.465664-84.56192-12.31872 0-24.356864 2.709504-35.688448 8.00768L502.667264 202.73152l-227.49184-106.17856c-11.368448-5.298176-23.38816-8.00768-35.708928-8.00768-46.592 0-84.467712 37.931008-84.467712 84.56192v22.173696c-58.836992 9.279488-90.998784 62.498816-90.998784 126.73024v485.10976c0 70.764544 38.899712 128.335872 109.666304 128.335872h658.00192c70.764544 0 128.331776-57.571328 128.331776-128.335872v-485.10976c0-64.421888-47.765504-117.74976-109.705216-126.826496zM745.9328 130.37568c6.4-2.985984 13.105152-4.499456 19.918848-4.499456 22.64064 0 47.130624 18.051072 47.130624 47.228928v526.32576c0 18.239488-10.676224 35.00032-27.193344 42.69056l-264.452096 123.406336V235.190272L745.9328 130.37568zM192.331776 173.105152c0-29.159424 24.455168-47.228928 47.13472-47.228928 6.832128 0 13.535232 1.513472 19.935232 4.499456l224.600064 104.812544v630.321152l-264.470528-123.387904c-16.521216-7.673856-27.19744-24.416256-27.19744-42.674176V173.105152zM101.332992 807.139328v-485.13024c0-43.421696 16.705536-79.724544 53.665792-88.741888v466.163712c0 32.667648 19.132416 62.703616 48.719872 76.531712l261.838848 122.175488H173.666304c-50.176 0.002048-72.333312-40.843264-72.333312-90.998784z m821.334016 0c0 50.176-40.839168 91.000832-90.998784 91.000832H539.721728l261.81632-122.136576c29.609984-13.891584 48.740352-43.905024 48.740352-76.570624V232.966144c41.250816 8.626176 72.388608 45.266944 72.388608 89.042944v485.13024z m0 0" p-id="30301" fill="#7dc5eb"></path></svg>