<?xml version="1.0" standalone="no"?><!DOCTYPE svg PUBLIC "-//W3C//DTD SVG 1.1//EN" "http://www.w3.org/Graphics/SVG/1.1/DTD/svg11.dtd"><svg t="1546255103147" class="icon" style="" viewBox="0 0 1024 1024" version="1.1" xmlns="http://www.w3.org/2000/svg" p-id="35509" xmlns:xlink="http://www.w3.org/1999/xlink" width="200" height="200"><defs><style type="text/css"></style></defs><path d="M891.07 767.941c73.978-131.198 79.553-297.868 0.083-438.394-25.891-45.843-58.933-84.686-96.492-116.752l-76.149 77.727c31.283 25.167 58.607 56.533 79.718 93.851 59.551 105.342 55.135 230.202-0.375 328.651l-92.627-54.631 59.044 224.691 219.851-60.268-93.053-54.875z m-650.63-54.658l92.951-54.891-219.915-60.086-58.945 224.61 93.002-54.875C253.384 955.352 474.26 1032.295 666.54 960.343l-27.904-106.375c-146.183 59.684-317.062 2.676-398.196-140.685zM358.367 263.87c50.776-29.883 106.292-44.115 160.967-44v109.61l161.034-164.435L519.334 0.542V110.97c-73.018-0.209-146.933 18.065-214.65 57.968-114.509 67.575-186.886 180.859-208.11 304.228l104.332 28.565c13.709-96.26 68.618-185.386 157.461-237.861z" p-id="35510" fill="#1296db"></path></svg>