<?xml version="1.0" standalone="no"?><!DOCTYPE svg PUBLIC "-//W3C//DTD SVG 1.1//EN" "http://www.w3.org/Graphics/SVG/1.1/DTD/svg11.dtd"><svg t="1546254812690" class="icon" style="" viewBox="0 0 1024 1024" version="1.1" xmlns="http://www.w3.org/2000/svg" p-id="31370" xmlns:xlink="http://www.w3.org/1999/xlink" width="200" height="200"><defs><style type="text/css"></style></defs><path d="M521.92 970.21a442.18 442.18 0 1 1 166.94-32.49 442.08 442.08 0 0 1-166.94 32.49z m-264.07-147l4.05 3.52a396.5 396.5 0 0 0 259.93 97c7.69 0 15.48-0.23 23.16-0.67l5.22-0.3-0.54-5.2a330.16 330.16 0 0 1 76.43-247.72l3-3.51-107.18-107.2z m400.24-120.1a282.91 282.91 0 0 0-62.88 208.5l0.55 5.5 5.42-1.1a396.65 396.65 0 0 0 180.76-89.25l4.06-3.52-124.41-124.4z m220.57-104.66a285.19 285.19 0 0 0-180.19 64.29l-4.27 3.5 124.38 124.4 3.52-4.05a396.79 396.79 0 0 0 89.32-180.76l1.1-5.42-5.5-0.55a285.84 285.84 0 0 0-28.36-1.41z m-753.2-94.82c-6 104 28.21 204.5 96.3 283l3.52 4.05 264.06-264.09-107.17-107.18-3.51 3a330.71 330.71 0 0 1-213.46 78.18 334.45 334.45 0 0 1-34.2-1.79l-5.51-0.57z m429 23l107.19 107.1 3.51-3a330.9 330.9 0 0 1 213.56-78.2 335 335 0 0 1 34.15 1.75l5.2 0.54 0.3-5.22c6-104.07-28.16-204.6-96.28-283.09l-3.52-4.05z m-32.53-397.19c-7.66 0-15.43 0.22-23.08 0.67l-5.22 0.3 0.54 5.2a330.26 330.26 0 0 1-12.36 130 327.92 327.92 0 0 1-64.05 117.69l-3 3.51L521.92 494 786 229.92l-4.05-3.52a396.61 396.61 0 0 0-260.02-96.96z m-300.17 137.1a396.91 396.91 0 0 0-89.33 180.79l-1.1 5.42 5.51 0.54a286.5 286.5 0 0 0 28.25 1.39 285.6 285.6 0 0 0 180.32-64.3l4.28-3.5-124.42-124.39z m220.91-129.45a396.54 396.54 0 0 0-180.77 89.32l-4 3.52 124.36 124.4 3.5-4.28a283 283 0 0 0 62.88-208.55l-0.55-5.5z" fill="#dc5d0a" p-id="31371"></path></svg>