<?xml version="1.0" standalone="no"?><!DOCTYPE svg PUBLIC "-//W3C//DTD SVG 1.1//EN" "http://www.w3.org/Graphics/SVG/1.1/DTD/svg11.dtd"><svg t="1546254657333" class="icon" style="" viewBox="0 0 1024 1024" version="1.1" xmlns="http://www.w3.org/2000/svg" p-id="25254" xmlns:xlink="http://www.w3.org/1999/xlink" width="200" height="200"><defs><style type="text/css"></style></defs><path d="M932.3 115.3c-0.8-12-9.8-21.8-21.7-23.6-0.9-0.1-21.3-3.2-52.6-3.2-79.6 0-225.9 19.3-311.8 148.8-0.6 0.9-1.1 1.8-1.6 2.8-8.4-2.6-17.8-0.7-24.7 5.6L156 580.4c-5.1 4.7-8.1 11.3-8.3 18.3-0.1 5.9 1.8 11.6 5.3 16.2l-36.4 36.5-8.2-8.2c-10-10-26.1-10-36.1 0s-10 26.2 0 36.2L343 950.7c5 5 11.5 7.5 18 7.5s13.1-2.5 18-7.5c10-10 10-26.2 0-36.2l-8.2-8.2 36.4-36.5c4.4 3.4 9.9 5.3 15.6 5.3h0.5c7-0.2 13.6-3.1 18.3-8.3L775.5 502c5.7-6.2 7.8-14.6 6.2-22.3 1-0.5 1.9-1 2.8-1.6 6.8-4.4 164.8-108.8 147.8-362.8zM152.8 687.6l36.2-36.3 182.1 182.6-36.2 36.3-182.1-182.6z m269.3 125L210.1 600l326.3-300 184.9 185.5-299.2 327.1zM773 422.5L600.9 248.9c74-94.5 191.5-109.1 257.1-109.1 9.4 0 17.6 0.3 24.4 0.7 4.1 164.6-74.5 251.6-109.4 282z" fill="#f90220" p-id="25255"></path></svg>