<?xml version="1.0" standalone="no"?><!DOCTYPE svg PUBLIC "-//W3C//DTD SVG 1.1//EN" "http://www.w3.org/Graphics/SVG/1.1/DTD/svg11.dtd"><svg t="1546253736377" class="icon" style="" viewBox="0 0 1230 1024" version="1.1" xmlns="http://www.w3.org/2000/svg" p-id="11560" xmlns:xlink="http://www.w3.org/1999/xlink" width="240.234375" height="200"><defs><style type="text/css"></style></defs><path d="M177.330271 679.92283H74.553973A27.516766 27.516766 0 0 1 47.037207 652.406063v-470.372071h886.886541v51.270556a23.518604 23.518604 0 0 0 47.037207 0V74.553973A74.553973 74.553973 0 0 0 906.406982 0H74.553973A74.553973 74.553973 0 0 0 0 74.553973v577.85209a74.553973 74.553973 0 0 0 74.553973 74.553974h102.776298a23.518604 23.518604 0 0 0 0-47.037207zM74.553973 47.037207h831.853009a27.516766 27.516766 0 0 1 27.516766 27.516766v60.442812H47.037207V74.553973A27.516766 27.516766 0 0 1 74.553973 47.037207z" fill="#2E8AE6" p-id="11561"></path><path d="M1159.702343 297.039963H319.853009a70.555811 70.555811 0 0 0-70.555811 70.555811v585.848415a70.555811 70.555811 0 0 0 70.555811 70.555811h839.849334a70.555811 70.555811 0 0 0 70.55581-70.555811V367.595774a70.555811 70.555811 0 0 0-70.55581-70.555811z m-839.849334 47.037207h839.849334a23.518604 23.518604 0 0 1 23.518603 23.518604v64.440974H296.334405v-64.440974a23.518604 23.518604 0 0 1 23.518604-23.518604z m839.849334 632.885623H319.853009a23.518604 23.518604 0 0 1-23.518604-23.518604V479.073955h886.886541v474.370234a23.518604 23.518604 0 0 1-23.518603 23.518604z" fill="#2E8AE6" p-id="11562"></path></svg>