<?xml version="1.0" standalone="no"?><!DOCTYPE svg PUBLIC "-//W3C//DTD SVG 1.1//EN" "http://www.w3.org/Graphics/SVG/1.1/DTD/svg11.dtd"><svg t="1546254542502" class="icon" style="" viewBox="0 0 1024 1024" version="1.1" xmlns="http://www.w3.org/2000/svg" p-id="20410" xmlns:xlink="http://www.w3.org/1999/xlink" width="200" height="200"><defs><style type="text/css"></style></defs><path d="M922.625 449.15 863.375 891.75c-1.375 10.3125-14.9375 18.625-30.25 18.625L583.5625 910.375c-15.275 0-28.8125-8.3125-30.2125-18.625l-59.25-442.5875 0 0c-19.7125 0-35.6875-15.9-35.6875-35.4375l0-35.5c0-19.65 15.975-35.525 35.6875-35.525L708.25 342.7l0-103.5875c-0.125-5.0875 0.5-10.1875 2.5-15 2.3125-6.1875 6.3125-11.2125 11.375-15.25l97.3125-96.65c13.9375-13.8125 36.5625-13.8125 50.5625 0 13.9375 13.9 13.9375 36.3375 0 50.1875l-90.3125 89.7125 0 90.625L922.5 342.7375c19.75 0 35.6875 15.9 35.6875 35.525l0 35.5C958.1875 433.2125 942.25 449.0625 922.625 449.15L922.625 449.15zM608.8125 836.4375l193 0 47.125-387.275L561.75 449.1625 608.8125 836.4375 608.8125 836.4375zM472.125 730.4375 184.5875 730.4375c7.75 42.125 67.0625 74.75 139.15 74.75l93.4375 0c23.0875 0 44.4625-3.625 63.65-9.5625l9.5875 71.4375c-19.75 4.625-40.4 7.8125-62.0625 7.8125l-115.7125 0c-108.25 0-198.875-62.3125-210.775-145-1.125-8.3125 2.275-16.75 9.625-23.125 6.5875-5.625 15.9-8.6875 25.625-9.3125L101.4375 697.4375c-19.75 0-35.6875-15.9375-35.6875-35.5 0-19.5625 15.9375-35.5 35.6875-35.5l35.625 0c-9.75-0.6875-19-3.6875-25.5875-9.4375-7.3375-6.25-10.775-14.5625-9.5875-22.9375 11.8375-82.625 102.4625-145 210.7125-145l115.775 0c2.0625 0 4.025 0.4375 6.125 0.4375l9.4625 70.8375c-8.65-1.0375-17.5625-1.625-26.775-1.625L323.75 518.7125c-72.0875 0-131.4 32.65-139.15 74.65l269.1875 0L472.125 730.4375 472.125 730.4375z" p-id="20411" fill="#d81e06"></path></svg>