<?xml version="1.0" standalone="no"?><!DOCTYPE svg PUBLIC "-//W3C//DTD SVG 1.1//EN" "http://www.w3.org/Graphics/SVG/1.1/DTD/svg11.dtd"><svg t="1546251099287" class="icon" style="" viewBox="0 0 1024 1024" version="1.1" xmlns="http://www.w3.org/2000/svg" p-id="4937" xmlns:xlink="http://www.w3.org/1999/xlink" width="200" height="200"><defs><style type="text/css"></style></defs><path d="M665.787 372.254l-56.002-0.591v252.674h56.343z" fill="#666666" p-id="4938"></path><path d="M694.31 680.479c1.402 22.85-5.868 27.792-30.12 27.792h-55.022l0.617 56.421s42.247-1.039 67.961-1.039c48.536-1.485 75.707-36.015 72.9-83.175v-393.03H694.31v393.03z m-150.326-15.13c0.053 0-7.519 42.92-55.272 42.92l-76.074 0.281c-17.404 2.584-28.608-8.226-28.044-27.903v-168.99H497.22s9.01 84.78-28.241 84.78c-14.291 0-55.644-0.398-55.644-0.398l-0.641 56.704 84.468-0.334c42.836-1.434 54.287-28.355 55.721-72.652 2.862-39.974 0.167-85.114 0.167-122.283l4.265-1.348 30.487-33.236-120.228-107.377 1.373-55.578-54.627-0.367c-10.41 76.188-75.175 152.487-140.865 198.217 8.563 15.75 19.903 34.612 27.063 53.196 16.845-12.633 27.594-27.036 27.594-27.036v196.531c-1.429 51.427 31.639 85.596 84.497 84.215h84.497c89.549 0 96.568-86.964 96.568-86.964l-49.69-12.378zM442.757 358.387c14.264 14.258 100.386 97.265 100.386 97.265l-177.553-0.336c38.57-34.273 51.456-55.467 77.167-96.93" fill="#666666" p-id="4939"></path><path d="M972.98 512.152c-0.025 13.17-0.52 26.33-1.577 39.456a496.117 496.117 0 0 1-1.741 17.656c-0.205 1.755-0.43 3.506-0.644 5.26-0.283 2.324 0.744 2.988 0.217-1.576 0.362 3.134-1.056 7.264-1.566 10.431a482.981 482.981 0 0 1-17.502 72.457c-3.796 11.678-8.107 23.15-12.698 34.533-0.781 1.94-0.992 5.136 0.282-0.625-0.34 1.538-1.394 3.247-2.027 4.69a479.996 479.996 0 0 1-11.61 24.568 486.668 486.668 0 0 1-37.553 62.058c-2.957 4.15-6.01 10.345-9.991 13.534 4.617-3.697 1.331-1.714-0.113 0.12a488.778 488.778 0 0 1-8.461 10.446 488.534 488.534 0 0 1-24.69 27.467 489.935 489.935 0 0 1-51.245 45.906c2.756-2.126 3.377-2.608 1.862-1.45-19.435 14.03-38.935 27.509-59.957 39.112a484.235 484.235 0 0 1-41.096 20.215c-0.471 0.204-5.687 2.412-1.636 0.716 4.055-1.696-1.183 0.478-1.657 0.673a482.683 482.683 0 0 1-106.202 29.874c-3.181 0.512-6.37 0.966-9.56 1.443-3.858 0.579 6.638-0.816 0.708-0.094-2.048 0.25-4.09 0.51-6.14 0.746a490.801 490.801 0 0 1-38.196 2.887 492.615 492.615 0 0 1-76.9-3.198c-1.169-0.138-2.336-0.29-3.505-0.435-6.176-0.768 5.986 0.88-0.165-0.028-2.899-0.427-5.795-0.853-8.688-1.32a485.184 485.184 0 0 1-18.93-3.439 482.965 482.965 0 0 1-87.27-26.434c-1.962-0.803-6.38-1.297-0.165-0.043-0.947-0.19-2.197-0.94-3.13-1.347a485.873 485.873 0 0 1-87.5-49.358 492.188 492.188 0 0 1-10.197-7.432c-1.392-1.042-7.776-4.78-1.493-1.086-4.662-2.74-8.936-7.066-13.096-10.53a489.597 489.597 0 0 1-69.213-70.654c-1.048-1.313-2.083-2.639-3.126-3.958-1.35-1.707-2.587-1.608 0.925 1.204-4.273-3.42-7.82-10.459-10.965-14.906a485.972 485.972 0 0 1-45.059-78.27 484.147 484.147 0 0 1-3.812-8.547c-0.405-0.931-1.156-2.18-1.347-3.127 1.477 3.514 1.68 3.984 0.608 1.413a482.892 482.892 0 0 1-30.802-109.518c-0.391-2.477-1.578-6.21-1.29-8.695l0.443 3.327a466.452 466.452 0 0 1-0.87-7.009 485.474 485.474 0 0 1-1.88-19.43 493.951 493.951 0 0 1 0.14-77.136 485.248 485.248 0 0 1 1.843-18.533c0.175-1.46 0.362-2.92 0.54-4.382 0.753-6.176-0.902 5.98 0.028-0.165 0.528-3.475 1.032-6.951 1.604-10.42a484.138 484.138 0 0 1 7.32-35.868c5.845-23.973 13.651-47.323 22.922-70.179 2.168-5.347-1.83 4.064-0.272 0.632 0.586-1.292 1.122-2.608 1.692-3.908a482.355 482.355 0 0 1 11.61-24.57 486.47 486.47 0 0 1 45.51-72.912c0.314-0.415 3.53-4.951 1.056-1.413-2.468 3.529 0.762-0.966 1.092-1.384a483.132 483.132 0 0 1 9.538-11.736 489.566 489.566 0 0 1 69.575-67.924c1.095-0.873 2.198-1.735 3.295-2.608 5.124-4.068-3.334 2.476 0.795-0.611 9.445-7.06 19.017-13.914 28.9-20.351A485.678 485.678 0 0 1 331.431 87.9c1.858-0.807 5.537-3.65 0.142-0.085 1.11-0.733 2.7-1.12 3.94-1.626a483.194 483.194 0 0 1 52.743-18.017 483.495 483.495 0 0 1 54.402-11.81c2.624-0.414 6.111-1.59 8.699-1.291-5.492-0.635-3.21 0.423-0.702 0.106 2.045-0.257 4.092-0.504 6.142-0.736a492.957 492.957 0 0 1 114.219 0.412c1.652 0.199 3.658 0.186 5.253 0.662-0.542-0.162-6.202-0.892-1.583-0.198 2.898 0.435 5.798 0.853 8.687 1.32a482.556 482.556 0 0 1 19.786 3.615 482.948 482.948 0 0 1 70.494 20.066c5.879 2.168 11.694 4.487 17.5 6.843 1.786 0.724 3.682 0.52-1.414-0.607 1.538 0.34 3.246 1.394 4.69 2.027a485.004 485.004 0 0 1 72.742 39.636 487.489 487.489 0 0 1 20.695 14.468c1.354 0.999 2.701 2.005 4.046 3.017 1.402 1.058 5.922 3.55 0.146 0.075 9.965 5.995 19.08 15.419 27.688 23.183a489.947 489.947 0 0 1 25.888 25.14 489.969 489.969 0 0 1 29.257 33.52c0.872 1.097 1.734 2.2 2.602 3.3 3.68 4.652-3.455-4.621 0.094 0.133 3.693 4.945 7.37 9.892 10.916 14.945a486.739 486.739 0 0 1 37.134 62.339 485.617 485.617 0 0 1 10.766 23.1c0.844 1.944 3.661 5.371 0.086 0.142 0.897 1.314 1.355 3.272 1.946 4.73a482.295 482.295 0 0 1 12.52 34.618 483.6 483.6 0 0 1 17.78 76.95c0.078 0.537 1.06 6.285 0.276 1.821-0.784-4.457 0.157 1.29 0.225 1.839a482.912 482.912 0 0 1 2.303 22.938c0.962 12.536 1.416 25.103 1.44 37.677 0.025 13.42 11.784 26.276 25.654 25.655 13.878-0.62 25.682-11.272 25.655-25.655-0.19-105.133-32.693-209.821-93.914-295.487C869.55 131.552 784.75 66.583 686.49 30.544 586.31-6.201 473.812-9.691 371.294 19.63c-98.473 28.164-188.37 86.63-253.412 165.825C50.318 267.72 9.587 368.261 1.45 474.472c-8.062 105.248 17.706 212.74 72.523 302.933 52.947 87.12 132.305 158.569 225.338 200.55 99.158 44.748 209.938 57.335 316.635 35.752 100.82-20.393 194.927-72.937 265.97-147.22 71.318-74.57 120.047-170.813 135.777-272.94 4.155-26.967 6.547-54.103 6.597-81.396 0.026-13.42-11.818-26.274-25.655-25.655-13.923 0.625-25.629 11.273-25.656 25.656" fill="#666666" p-id="4940"></path></svg>