<?xml version="1.0" standalone="no"?><!DOCTYPE svg PUBLIC "-//W3C//DTD SVG 1.1//EN" "http://www.w3.org/Graphics/SVG/1.1/DTD/svg11.dtd"><svg t="1546255123922" class="icon" style="" viewBox="0 0 1024 1024" version="1.1" xmlns="http://www.w3.org/2000/svg" p-id="37084" xmlns:xlink="http://www.w3.org/1999/xlink" width="200" height="200"><defs><style type="text/css"></style></defs><path d="M829.22 124.425l-7.074-10.657H211.681l-7.142 9.141C48.983 321.5 70.507 442.416 97.154 496.86c26.74 54.537 80.878 89.832 137.978 89.832h5.146c72.044-2.867 119.954-38.642 145.19-64.548 22.794 25.906 65.7 60.542 132.857 60.542 70.023 0 113.703-37.702 135.58-63.878 30.546 24.907 90.183 65.722 152.687 65.722 40.98 0 76.086-16.8 104.681-49.908 106.091-123.54-74.324-398.555-82.053-410.197z m45.422 379.179c-19.224 22.498-41.5 33.237-68.145 33.237-60.246 0-122.822-54.56-136.78-67.52V305.755c0.024-0.459 0.26-0.8 0.26-1.246 0-13.253-10.715-23.968-23.921-23.968-13.228 0-23.92 10.715-23.92 23.968h-0.259v177.852c-13.064 17.812-46.173 52.635-103.552 52.635-64.785 0-98.526-44.293-107.667-58.368v-172.12c0-13.253-10.715-23.968-23.898-23.968-13.228 0-23.943 10.715-23.943 23.968v171.25c-11.725 15.25-52.071 60.39-124.466 63.373h-3.22v-0.047c-31.933 0-73.688-19.585-95-63.232-21.358-43.54-36.843-141.95 94.954-314.398h561.097c49.814 78.719 144.298 265.771 78.46 342.15z m-43.354 110.228c-13.277 0-24.086 10.761-24.132 24.038V811.575c0 26.694-21.642 48.312-48.263 48.312H264.08c-26.623 0-48.265-21.618-48.265-48.312V637.94c-0.024-13.323-10.808-24.108-24.11-24.108-13.3 0-24.084 10.785-24.13 24.108v178.453c0 50.73 41.025 91.805 91.664 91.805h504.492c50.637 0 91.662-41.075 91.662-91.805V637.87c-0.068-13.278-10.831-24.038-24.106-24.038z" p-id="37085" fill="#7dc5eb"></path></svg>