<?xml version="1.0" standalone="no"?><!DOCTYPE svg PUBLIC "-//W3C//DTD SVG 1.1//EN" "http://www.w3.org/Graphics/SVG/1.1/DTD/svg11.dtd"><svg t="1546251145484" class="icon" style="" viewBox="0 0 1024 1024" version="1.1" xmlns="http://www.w3.org/2000/svg" p-id="5807" xmlns:xlink="http://www.w3.org/1999/xlink" width="200" height="200"><defs><style type="text/css"></style></defs><path d="M843.776 267.776c-42.496-48.128-102.912-75.776-166.912-76.288h-0.512c-74.24 0-134.656 59.392-164.352 94.72C443.392 206.848 411.136 194.56 336.896 191.488 285.184 189.44 225.28 214.528 185.344 256c-29.184 30.72-62.976 84.48-56.32 167.936 13.824 172.544 271.36 403.456 385.536 408.576h3.584c119.808 0 356.864-254.464 376.832-406.016 6.656-55.808-11.776-113.664-51.2-158.72z m1.536 152.064c-17.92 136.192-243.712 365.568-329.216 363.008-94.72-4.096-326.656-216.576-338.432-363.008-3.584-51.2 11.264-96.256 43.008-129.536C253.952 256 299.008 240.64 330.24 240.64h4.096c62.976 2.56 82.944 7.168 159.744 100.864l21.504 25.6 18.432-28.16c0.512-1.024 66.048-98.304 142.848-98.304 49.664 0 97.28 21.504 130.048 59.392 29.696 34.304 44.032 78.336 38.4 119.808z" p-id="5808" fill="#f55da4"></path><path d="M667.136 300.032l-6.144 24.064c1.024 0 76.8 19.968 101.888 97.792l23.552-7.68C757.76 323.584 670.72 301.056 667.136 300.032zM765.952 435.712l2.048 24.576 24.576-2.56-2.048-24.576-24.576 2.56z" p-id="5809" fill="#f55da4"></path></svg>