<?xml version="1.0" standalone="no"?><!DOCTYPE svg PUBLIC "-//W3C//DTD SVG 1.1//EN" "http://www.w3.org/Graphics/SVG/1.1/DTD/svg11.dtd"><svg t="1546253815853" class="icon" style="" viewBox="0 0 1024 1024" version="1.1" xmlns="http://www.w3.org/2000/svg" p-id="12331" xmlns:xlink="http://www.w3.org/1999/xlink" width="200" height="200"><defs><style type="text/css"></style></defs><path d="M527.675065 1023.999212c-282.308706 0-511.999606-229.6909-511.999606-511.999606S245.366359 0 527.675065 0a39.384585 39.384585 0 0 1 0 78.76917 433.703051 433.703051 0 0 0-433.230436 433.230436c0 238.828124 194.323543 433.230436 433.230436 433.230436 113.742682 0 221.341368-43.874428 302.78869-123.35252a435.908588 435.908588 0 0 0 101.690999-154.308805 39.384585 39.384585 0 1 1 73.570405 28.199363 514.835296 514.835296 0 0 1-120.122985 182.429398A509.636531 509.636531 0 0 1 527.675065 1023.999212z" fill="#333333" p-id="12332"></path><path d="M317.046304 276.873633a39.384585 39.384585 0 0 0-39.384585 39.384585v393.767082a39.384585 39.384585 0 0 0 78.76917 0V316.258218a39.384585 39.384585 0 0 0-39.384585-39.384585zM706.953696 274.589327a39.384585 39.384585 0 0 0-39.384585 39.384585v393.767082a39.384585 39.384585 0 0 0 78.76917 0V313.973912a39.384585 39.384585 0 0 0-39.384585-39.384585z" fill="#333333" p-id="12333"></path><path d="M289.240787 290.343161a39.384585 39.384585 0 0 0 0 55.689804l389.828623 389.828623a39.384585 39.384585 0 0 0 55.689803-55.689804L344.93059 290.343161a39.384585 39.384585 0 0 0-55.689803 0z" fill="#333333" p-id="12334"></path></svg>