<?xml version="1.0" standalone="no"?><!DOCTYPE svg PUBLIC "-//W3C//DTD SVG 1.1//EN" "http://www.w3.org/Graphics/SVG/1.1/DTD/svg11.dtd"><svg t="1546251305851" class="icon" style="" viewBox="0 0 1024 1024" version="1.1" xmlns="http://www.w3.org/2000/svg" p-id="10741" xmlns:xlink="http://www.w3.org/1999/xlink" width="200" height="200"><defs><style type="text/css"></style></defs><path d="M1023.979 388.908L507.692 143.263 0.022 395l228.582 113.353v265.558l11.364 8.73c4.762 3.628 118.076 89.222 270.87 93.048a367.4 367.4 0 0 0 9.636 0.114c149.592 0 246.098-87.437 250.236-91.263l9.325-8.616V510.887l243.944-121.98zM508.2 207.77l383.42 182.44-383.73 191.852-377.21-187.06L508.201 207.77z m213.79 541.767c-25.736 19.755-104.017 70.545-209.678 68.107-107.673-2.692-195.337-53.397-225.662-73.237V537.14l221.354 109.77 213.986-107v209.628zM36.328 545.556h58.045v221.298H36.328V545.556z m665.255-188.392L552.84 284.607l-12.697 26.075 148.742 72.556z m34.59 18.176l29.022 14.51-12.98 25.961-29.022-14.51 12.98-25.961z" fill="#1afa29" p-id="10742"></path></svg>