<?xml version="1.0" standalone="no"?><!DOCTYPE svg PUBLIC "-//W3C//DTD SVG 1.1//EN" "http://www.w3.org/Graphics/SVG/1.1/DTD/svg11.dtd"><svg t="1546254578187" class="icon" style="" viewBox="0 0 1024 1024" version="1.1" xmlns="http://www.w3.org/2000/svg" p-id="22057" xmlns:xlink="http://www.w3.org/1999/xlink" width="200" height="200"><defs><style type="text/css"></style></defs><path d="M779.776 424.96c-39.936-1.536-79.872-3.584-119.808-5.12-38.4-55.808-76.8-111.104-115.2-166.912-14.336-0.512-28.16-1.024-41.984-1.536-9.216 6.656-18.944 13.824-28.16 20.48C419.84 326.144 365.056 379.904 309.76 433.664v46.592c52.736 39.424 105.472 79.36 158.72 118.784l16.896 16.896c0.512 61.44 1.024 122.368 1.024 183.808h58.88v-253.44L457.216 475.648l72.704-82.944h17.408c5.12 5.12 9.728 10.24 14.848 15.36L624.64 487.424h154.624c0.512-20.992 0.512-41.472 0.512-62.464z" p-id="22058" fill="#f4ea2a"></path><path d="M619.008 192.512m-74.24 0a74.24 74.24 0 1 0 148.48 0 74.24 74.24 0 1 0-148.48 0Z" p-id="22059" fill="#f4ea2a"></path><path d="M762.368 532.48c-100.352 0-181.76 81.408-181.76 181.76s81.408 181.76 181.76 181.76 181.76-81.408 181.76-181.76-81.408-181.76-181.76-181.76z m4.608 312.832c-72.704 0-131.584-58.88-131.584-131.584s58.88-131.584 131.584-131.584 131.584 58.88 131.584 131.584-58.88 131.584-131.584 131.584zM260.608 532.48c-100.352 0-181.76 81.408-181.76 181.76S160.256 896 260.608 896s181.76-81.408 181.76-181.76S360.96 532.48 260.608 532.48z m4.608 312.832c-72.704 0-131.584-58.88-131.584-131.584s58.88-131.584 131.584-131.584 131.584 58.88 131.584 131.584-58.88 131.584-131.584 131.584z" p-id="22060" fill="#f4ea2a"></path></svg>