<?xml version="1.0" standalone="no"?><!DOCTYPE svg PUBLIC "-//W3C//DTD SVG 1.1//EN" "http://www.w3.org/Graphics/SVG/1.1/DTD/svg11.dtd"><svg t="1546254712596" class="icon" style="" viewBox="0 0 1025 1024" version="1.1" xmlns="http://www.w3.org/2000/svg" p-id="26601" xmlns:xlink="http://www.w3.org/1999/xlink" width="200.1953125" height="200"><defs><style type="text/css"></style></defs><path d="M473.173333 192C305.152 192 124.501333 251.818667 11.008 362.154667a32 32 0 0 0-1.493333 44.373333l205.482666 227.456c1.024 1.194667 1.834667 2.005333 2.517334 2.986667l166.656 184.533333c5.973333 6.656 14.848 10.496 23.850666 10.496h258.986667c3.157333 0.512 6.826667 0.512 10.154667 0h315.989333c17.834667 0 32-14.165333 32-32 0-321.493333-236.330667-608-551.978667-608z m0 64c40.661333 0 79.36 5.973333 116.309334 16.170667l-94.464 252.330666a276.053333 276.053333 0 0 0-47.018667-9.344v-258.133333c8.533333-0.170667 16.981333-1.024 25.173333-1.024zM384 263.168v251.818667a332.074667 332.074667 0 0 0-41.173333 7.509333L247.978667 298.837333c43.52-16.64 89.514667-28.672 136.021333-35.669333z m265.984 30.293333a467.328 467.328 0 0 1 133.546667 90.368 10.154667 10.154667 0 0 0-2.688 2.688l-184.661334 190.634667a277.333333 277.333333 0 0 0-42.197333-28.16z m-460.8 31.018667l93.824 221.525333a260.352 260.352 0 0 0-38.997333 24.490667L82.773333 391.978667c31.018667-25.813333 67.2-48.128 106.368-67.498667z m637.824 106.026667a572.288 572.288 0 0 1 86.997333 149.504l-244.181333 86.826666a281.088 281.088 0 0 0-28.672-43.989333l185.685333-191.829333c0-0.170667 0-0.170667 0.170667-0.512zM413.013333 576.170667a18.133333 18.133333 0 0 0 5.973334 0A222.976 222.976 0 0 1 637.013333 768H422.186667l-135.338667-150.016a222.037333 222.037333 0 0 1 126.165333-41.813333z m521.173334 64.853333c11.648 40.789333 18.986667 83.157333 21.632 126.976h-254.976c-1.706667-14.165333-3.84-28.16-7.68-41.813333z" p-id="26602" fill="#e6399b"></path></svg>