<?xml version="1.0" standalone="no"?><!DOCTYPE svg PUBLIC "-//W3C//DTD SVG 1.1//EN" "http://www.w3.org/Graphics/SVG/1.1/DTD/svg11.dtd"><svg t="1546251255934" class="icon" style="" viewBox="0 0 1024 1024" version="1.1" xmlns="http://www.w3.org/2000/svg" p-id="8998" xmlns:xlink="http://www.w3.org/1999/xlink" width="200" height="200"><defs><style type="text/css"></style></defs><path d="M882.3849 291.71988c8.850944 13.1861 17.882519 26.191568 26.733463 39.377668l1.083789 0.541895c10.657259-16.979361 21.133886-33.958723 31.791145-50.938085 16.437467-24.746516 34.500617-44.074087 44.254719-76.587758 18.966308-62.859764-26.010937-109.462692-85.438702-108.378903-4.154525 0.722526-8.309049 1.445052-12.644206 2.167579-14.269889 4.154525-28.901041 13.1861-37.210089 23.482095-6.863997 8.489681-13.727994 17.521256-18.063151 28.539778-11.199153 27.817252-2.528841 59.96966 9.392838 79.29723 13.366731 20.772623 26.733463 41.725878 40.100194 62.498501z m-12.644205-123.190686c5.96084-18.966308 18.605045-22.75957 36.668195-30.165461 56.898924-0.903158 57.982713 79.658494 5.418946 87.606279-26.733463 4.154525-50.757453-29.804198-42.087141-57.440818zM276.366202 628.236373c33.055565-46.241665 64.304816-82.729229 83.813018-144.505203C403.530781 345.7287 315.563239 232.472747 180.631505 234.820956c-10.476627 4.154525-26.191568 2.709473-36.668196 5.96084-31.429882 9.754101-61.414712 28.359146-79.839125 51.479979-16.076204 20.050097-30.707356 39.919563-41.003351 66.291762-24.02399 61.775975-6.502734 126.983948 20.230728 170.696772 30.887987 50.757453 62.498501 100.250485 96.276592 148.298465 17.882519 26.3722 35.765038 52.925031 53.647557 79.297231l1.625684 1.083789c11.199153-18.06315 22.217675-36.126301 33.416828-54.189452 15.895572-25.469042 30.707356-51.299347 48.04798-75.503969z m-171.238666-231.388957c8.850944-28.359146 29.804198-50.576821 56.357029-61.23408C169.793614 332.181337 180.08961 333.084495 189.482448 329.652496c62.317869-0.541895 115.2429 62.859764 89.051332 130.054683-12.824837 33.236197-37.751984 56.537661-77.671547 62.859764-61.053449 9.934733-114.881637-64.485447-95.734697-125.719527zM929.349092 582.355971c-45.880402-29.98483-91.580173-59.789028-137.460576-89.773858-15.714941-10.83789-31.429882-21.495149-47.144822-32.333039-31.068619-16.979361-61.956606-33.958723-93.025225-50.938084-16.618098-9.754101-36.126301-17.882519-49.312401-31.249251l-1.083789-0.541894c61.956606-12.824837 126.622685-13.727994 191.650027-24.565885 33.416828-3.793262 66.833657-7.586523 100.250485-11.560416v-0.541895c-5.057682-6.863997-19.688834-26.552831-26.733463-30.165461-8.309049 0.722526-16.79873 1.445052-25.107779 2.167578-30.346093 1.806315-60.511554 3.61263-90.857647 5.418945-23.662727 3.61263-47.867349 0.541895-72.794496 4.335156C607.46375 329.291233 537.198095 335.613336 466.93244 342.11607c31.791145 24.385253 63.58229 48.951138 95.192803 73.336391C596.083965 438.031399 632.752161 455.913918 665.627095 479.396013c41.906509 32.694302 83.99365 65.388605 125.900158 97.902276l1.08379 1.625683c-101.153643 6.322103-202.126654 12.824837-303.280297 19.14694l-61.23408 2.709473c-24.927148 3.793262-48.04798 4.877051-71.168813 9.392838-11.199153 1.625684-22.217675 3.251367-33.416828 4.87705-33.055565 55.634503-66.111131 111.269007-98.986065 166.903511l-1.083789 1.625683c112.172164-24.746516 228.13759-43.351561 342.11607-68.45934 61.595343-11.018522 123.371318-21.856412 184.966661-32.874934 87.425648-14.992415 174.851297-29.98483 262.096313-44.796613v-0.541895c-27.817252-18.06315-55.453872-36.306932-83.271123-54.550714z" p-id="8999"></path></svg>